/* XPM */
static char *result[] = {
/* columns rows colors chars-per-pixel */
"32 32 233 2 ",
"   c #41210A",
".  c #41210B",
"X  c #42210A",
"o  c #43200B",
"O  c #42210B",
"+  c #42220B",
"@  c #46240B",
"#  c #43210C",
"$  c #42220C",
"%  c #4A260C",
"&  c #4E280C",
"*  c #4E290F",
"=  c #552C0D",
"-  c #582F0D",
";  c #5A300E",
":  c #5E330E",
">  c #412211",
",  c #402312",
"<  c #412312",
"1  c #402412",
"2  c #412413",
"3  c #442511",
"4  c #472611",
"5  c #452613",
"6  c #462614",
"7  c #4E2510",
"8  c #4C2B11",
"9  c #4E2B12",
"0  c #573114",
"q  c #593312",
"w  c #5C3413",
"e  c #61340E",
"r  c #62350E",
"t  c #65370F",
"y  c #66370F",
"u  c #693A0F",
"i  c #6C3B0F",
"p  c #613714",
"a  c #653812",
"s  c #693B11",
"d  c #6A3B10",
"f  c #683A13",
"g  c #6E3D10",
"h  c #683B15",
"j  c #713E10",
"k  c #723F10",
"l  c #7D3D1B",
"z  c #7A4411",
"x  c #7C4511",
"c  c #7B4615",
"v  c #7E4815",
"b  c #A93728",
"n  c #D81A19",
"m  c #D91A1A",
"M  c #D02307",
"N  c #D12D09",
"B  c #D1300A",
"V  c #C93D18",
"C  c #E93939",
"Z  c #864C12",
"A  c #804915",
"S  c #834B15",
"D  c #814C14",
"F  c #854C15",
"G  c #884D12",
"H  c #8B4F13",
"J  c #8E5113",
"K  c #8B5016",
"L  c #8E5214",
"P  c #8F5215",
"I  c #8E5116",
"U  c #905213",
"Y  c #905215",
"T  c #925514",
"R  c #965614",
"E  c #995613",
"W  c #985614",
"Q  c #985815",
"!  c #9A5915",
"~  c #9F5C15",
"^  c #A05C15",
"/  c #A15C15",
"(  c #A45F16",
")  c #A55F16",
"_  c #A66016",
"`  c #A66116",
"'  c #A86116",
"]  c #A96116",
"[  c #A96216",
"{  c #AB6317",
"}  c #AD6416",
"|  c #AE6516",
" . c #AE6517",
".. c #B06617",
"X. c #B16717",
"o. c #B46917",
"O. c #B66B17",
"+. c #B76B17",
"@. c #B66C16",
"#. c #BB6D17",
"$. c #B06618",
"%. c #BB6B18",
"&. c #BA6D18",
"*. c #BC6E18",
"=. c #BE6E19",
"-. c #BF6F19",
";. c #BE7017",
":. c #BF7018",
">. c #875A2E",
",. c #8B633A",
"<. c #8C6239",
"1. c #8D6339",
"2. c #8E6339",
"3. c #8C623A",
"4. c #8D623A",
"5. c #8D633A",
"6. c #8E643B",
"7. c #8F643C",
"8. c #8F653C",
"9. c #91663D",
"0. c #90683E",
"q. c #92693F",
"w. c #93693F",
"e. c #946A3F",
"r. c #9D6C39",
"t. c #AA7339",
"y. c #B67B3A",
"u. c #D55211",
"i. c #C07118",
"p. c #C17118",
"a. c #C27218",
"s. c #C37218",
"d. c #C37219",
"f. c #C47218",
"g. c #C57319",
"h. c #C67419",
"j. c #C77419",
"k. c #C97619",
"l. c #CC7819",
"z. c #CD7819",
"x. c #CD7919",
"c. c #CD791A",
"v. c #CE791A",
"b. c #D17B19",
"n. c #D07B1A",
"m. c #D17B1A",
"M. c #D27B1A",
"N. c #D37C1A",
"B. c #D37D1A",
"V. c #D47D1A",
"C. c #D57D1A",
"Z. c #D57E1A",
"A. c #D67E1A",
"S. c #D77E1A",
"D. c #D77F1A",
"F. c #D77F1B",
"G. c #D1402F",
"H. c #936940",
"J. c #946940",
"K. c #956C42",
"L. c #966C43",
"P. c #976C43",
"I. c #966D43",
"U. c #976E43",
"Y. c #976E44",
"T. c #976F45",
"R. c #996E47",
"E. c #9A7047",
"W. c #9B7047",
"Q. c #9B7147",
"!. c #9C7147",
"~. c #997048",
"^. c #9D7449",
"/. c #9E754A",
"(. c #9F754A",
"). c #9F754B",
"_. c #A0764B",
"`. c #A0764C",
"'. c #A2794D",
"]. c #A2784E",
"[. c #A3794E",
"{. c #A4794E",
"}. c #A57A4F",
"|. c #A67B50",
" X c #A57C50",
".X c #A67D51",
"XX c #A67C52",
"oX c #A77D53",
"OX c #AA7D50",
"+X c #A97F53",
"@X c #D24F45",
"#X c #F05352",
"$X c #F25655",
"%X c #F65757",
"&X c #F75757",
"*X c #D8801A",
"=X c #DB801B",
"-X c #DC811A",
";X c #DC821A",
":X c #DC821B",
">X c #DE831B",
",X c #DF831B",
"<X c #DB811C",
"1X c #DA821C",
"2X c #E0851B",
"3X c #E1851B",
"4X c #E0851C",
"5X c #E1851C",
"6X c #E3861C",
"7X c #E78A1D",
"8X c #EA8B1C",
"9X c #C1823A",
"0X c #A88052",
"qX c #AB8154",
"wX c #AB8055",
"eX c #AB8155",
"rX c #AC8254",
"tX c #AE8357",
"yX c #AF8358",
"uX c #AF8558",
"iX c #AF8559",
"pX c #B18456",
"aX c #B0855A",
"sX c #B1875B",
"dX c #B2895C",
"fX c #B3895C",
"gX c #B78B5E",
"hX c #B68C5F",
"jX c #B88B5A",
"kX c #B78E61",
"lX c #B99062",
"zX c #BA9062",
"xX c None",
/* pixels */
"xXxXxXxXxXxXxXxXxXxXxXxXxXxXxXxXxXxXxXxXxXxXxXxXxXxXxXxXxXxXxXxX",
"xXxXxXxXxXxXxXxXxXxXxXxXxXxXxXxXxXxXxXxXxXxXxXxXxXxXxXxXxXxXxXxX",
"xXxXxXxXxXxXxXxXxXxXxXxXxXxXxXxXxXxXxXxXxXxXxXxXxXxXxXxXxXxXxXxX",
"xXxXxXxXxXxXxXxXxXxXxXxXxXxXxXxXxXxXxXxXxXxXxXxXxXxXxXxXxXxXxXxX",
"xXxXxXxXxXxXxXxXxXxXxXxXxXxXxXxXxXxXxXxXxXxXxXxXxXxXxXxXxXxXxXxX",
"xXxXxXxXxXxXxXxXxXxXxXxXxXxXxXxXxXxXxXxXxXxXxXxXxXxXxXxXxXxXxXxX",
"xXxXxXxXxXxXxXxXxXxXxXxXxXxXxXxXxXxXxXxXxXxXxXxXxXxXxXxXxXxXxXxX",
"xXxXxXxXxXxXxXxXxXxXxXxXxXxXxXxXxXxXxXxXxXxXxXxXxXxXxXxXxXxXxXxX",
"xXxXxXxXxXxXxXxXxXxXxXxXxXxXxXxXxXxXxXxXxXxXxXxXxXxX,.xXxXxXxXxX",
"xXxXxXxXxXxXxXxXxXxXxXxXxXxXxXxXxXxXxXxXxXxXxXxXH.6.3.4.xXxXxXxX",
"xXxXxXxXxXxXxXxXxXxXxXxXxXxXxXxXxXxXxXxXxXxX~.U.w.6.3.4.xXxXxXxX",
"xXxXxXxXxXxXxXxXxXxXxXxXxXxXxXxXxXxXxXxXxX`.Q.I.w.8.7.0.5.3.xXxX",
"xXxXxXxXxXxXxXxXxXxXxXxXxXxXxXxXxXxXxX0X}._.Q.T.Y.P.J.9.3.3.xXxX",
"xXxXxXxXxXxXxXxXxXxXxXxXxXxXxXxXxXxXtX+X|.[.[.).!.U.e.8.3.1.xXxX",
"xXxXxXxXxXxXxXxXxXxXxXxXxXxXxXxXhXsXaXuXeXoX{./.W.I.w.6.<.xXxXxX",
"xXxXxXxXxX  xXxXxXxXxXxXxXxXOXzXlXkXfXiXwXXX'.(.E.L.q.2.xXxXxXxX",
"xXxXxXo # X xXl G.V =XxX9 <.pXjXjXgXdXiXrX.X].^.R.K.xXxXxXxXxXxX",
"xXxXO xXO xX. @XC m u.D & >.r.t.y.9XxXyXqX XxXxXxXxXxXxXxXxXxXxX",
"xXxX+ $ xXxX7 %XC m N g - k H ) *.N.xXxXX.5X` xXxXxXxXxXxXxXxXxX",
"xXxXxXxXxXxXxX&XC m M : r x R | g.S.t J p.8X..>XE xXxXxXxXxXxXxX",
"xXxXxXxXxXxXxX$XC m B * d Z ~ +.v.$.i ^ M.k.p.F.} c. .xXxXxXxXxX",
"xXxXxXxXxXxXxX#XC n xX3 s U Q A D.j z ..3X{ m.&.:.j.a.,XxXxXxXxX",
"xXxXxXxXxXxXxXxXb xXxX4 a ! I p ;X8 f v h F ,X' n.=.B.z.*XxXxXxX",
"xXxXxXxXxXxXxXxXxXxX> xXq ( S 0 xXy L -.T P C...<X#.6Xs.7XxXxXxX",
"xXxXxXxXxXxXxXxXxXxX, xXxXxX6 xXxXxX .-XY K ' s.h.l.4Xx.1XxXxXxX",
"xXxXxXxXxXxXxXxXxX< xXxXxXxX< xXxXxX;.X.] c / b.+.:Xf.2X_ u xXxX",
"xXxXxXxXxXxXxXxXxXxXxXxXxXxX2 xXxXxXxXxXi.w o.%.s.A.d.D.k = xXxX",
"xXxXxXxXxXxXxXxXxXxXxXxXxXxXxXxXxXxXxXxXxX5 O.[ V.[ Z.G ; @ xXxX",
"xXxXxXxXxXxXxXxXxXxXxXxXxXxXxXxXxXxXxXxXxX1 xXxXxX@.W e % xXxXxX",
"xXxXxXxXxXxXxXxXxXxXxXxXxXxXxXxXxXxXxXxXxXxXxXxXxXxXxXxXxXxXxXxX",
"xXxXxXxXxXxXxXxXxXxXxXxXxXxXxXxXxXxXxXxXxXxXxXxXxXxXxXxXxXxXxXxX",
"xXxXxXxXxXxXxXxXxXxXxXxXxXxXxXxXxXxXxXxXxXxXxXxXxXxXxXxXxXxXxXxX"
};
