/* XPM */
static char *result[] = {
/* columns rows colors chars-per-pixel */
"32 32 114 2 ",
"   c #341D05",
".  c #3B1E08",
"X  c #3C2313",
"o  c #3F2A11",
"O  c #4E1F0E",
"+  c #42220C",
"@  c #48240B",
"#  c #4E290D",
"$  c #562D0D",
"%  c #5A2F0E",
"&  c #55350F",
"*  c #5D330E",
"=  c #472213",
"-  c #452A11",
";  c #4B2C11",
":  c #592C15",
">  c #5D3313",
",  c #632A0D",
"<  c #67380F",
"1  c #693B12",
"2  c #703F10",
"3  c #734213",
"4  c #7B4411",
"5  c #7F4814",
"6  c #684222",
"7  c #9B2F09",
"8  c #883724",
"9  c #DF1A0C",
"0  c #CC1411",
"q  c #D91A13",
"w  c #DD181C",
"e  c #DA2F0A",
"r  c #C83B0B",
"t  c #DE2125",
"y  c #DA3327",
"u  c #E42D2E",
"i  c #EF2C2B",
"p  c #E93839",
"a  c #F03C3E",
"s  c #854A0F",
"d  c #8E4F0F",
"f  c #814712",
"g  c #854C14",
"h  c #84401D",
"j  c #8A5216",
"k  c #84511E",
"l  c #935414",
"z  c #9B5712",
"x  c #9B5A15",
"c  c #A25215",
"v  c #A25E17",
"b  c #9B6417",
"n  c #A76117",
"m  c #AC6316",
"M  c #A46018",
"N  c #AB6C18",
"B  c #B26613",
"V  c #B36917",
"C  c #BD6E17",
"Z  c #B0691B",
"A  c #BC6D18",
"S  c #B27219",
"D  c #BD751A",
"F  c #95402F",
"G  c #8A5F35",
"H  c #AC453C",
"J  c #9E672F",
"K  c #8D633B",
"L  c #92673C",
"P  c #92683E",
"I  c #AF783E",
"U  c #DF5713",
"Y  c #C06F17",
"T  c #D56C17",
"R  c #C47319",
"E  c #CA7619",
"W  c #CE7919",
"Q  c #D77D17",
"!  c #D37C1A",
"~  c #CC4336",
"^  c #C37925",
"/  c #8E5F40",
"(  c #956C42",
")  c #986E44",
"_  c #8D794D",
"`  c #9A7046",
"'  c #9C734A",
"]  c #9F7B4F",
"[  c #A1774C",
"{  c #A3794E",
"}  c #AB7E4F",
"|  c #A57C52",
" . c #AA7F53",
".. c #DB554F",
"X. c #F54748",
"o. c #EF5654",
"O. c #FD5556",
"+. c #CF821D",
"@. c #D5811C",
"#. c #DC821A",
"$. c #E2851C",
"%. c #E68A1D",
"&. c #B88349",
"*. c #A48656",
"=. c #AC8255",
"-. c #AF855A",
";. c #B1865A",
":. c #B58A5D",
">. c #B88B5B",
",. c #B68D65",
"<. c #B88F62",
"1. c #B99061",
"2. c #C68740",
"3. c None",
/* pixels */
"3.3.3.3.3.3.3.3.3.3.3.3.3.3.3.3.3.3.3.3.3.3.3.3.3.3.3.3.3.3.3.3.",
"3.3.3.3.3.3.3.3.3.3.3.3.3.3.3.3.3.3.3.3.3.3.3.3.3.3.3.3.3.3.3.3.",
"3.3.3.3.3.3.3.3.3.3.3.3.3.3.3.3.3.3.3.3.3.3.3.3.3.3.3.3.3.3.3.3.",
"3.3.3.3.3.3.3.3.3.3.3.3.3.3.3.3.3.3.3.3.3.3.3.3.3.3.3.3.3.3.3.3.",
"3.3.3.3.3.3.3.3.3.3.3.3.3.3.3.3.3.3.3.3.3.3.3.3.3.3.3.3.3.3.3.3.",
"3.3.3.3.3.3.3.3.3.3.3.3.3.3.3.3.3.3.3.3.3.3.3.3.3.3.3.3.3.3.3.3.",
"3.3.3.3.3.3.3.3.3.3.3.3.3.3.3.3.3.3.3.3.3.3.3.3.3.3.3.3.3.3.3.3.",
"3.3.3.3.+ 3.+ 3.3.3.3.3.3.3.3.3.3.3.3.3.3.3.3.3.3.3.3.3.3.3.3.3.",
"3.3.+ + + + . 3.h c 3.3.3.3.3.3.3.3.3.3.3.3.3.3.` ( L K K 3.3.3.",
"3.3.3.+ 3.3.  F ~ y T 3.3.3.3.3.3.3.;.=.*.| { ` ) ( P K K 3.3.3.",
"3.3.3.3.3.3.: o.p w U 3.: 6 ' :.,.<.-.-.=.{ { ' ` ( K K K 3.3.3.",
"3.3.3.3.3.3.H O.u q r 3 # G =.>.1.<.:.-.=.=.| { ' ` ) P P K K 3.",
"3.3.3.3.3.3...X.u 9 7 & * k J I &.>.;.;.=.| { ' ' ` ( P K K K 3.",
"3.3.3.3.3.3.O.p w e , * 2 s z Z ^ 2.,.-.=.| { ' ) ( ( K K / 3.3.",
"3.3.3.3.3.3.8 i 0 3.o 2 g x m Y Q 3.3.3. .| ' ' _ ( P K K 3.3.3.",
"3.3.3.3.3.3.3.3.3.O ; 5 z x R W C < j B $.3.3.3.3.3.3.3.3.3.3.3.",
"3.3.3.3.3.3.3.3.= 3.> l x 3 R m 5 4 m Q #.B 3.3.3.3.3.3.3.3.3.3.",
"3.3.3.3.3.3.3.3.3.3.3.n g > #.> < v $.E R ! C b 3.3.3.3.3.3.3.3.",
"3.3.3.3.3.3.3.3.3.3.3.3.= j 3.; 3 f n n W E Z R 3.3.3.3.3.3.3.3.",
"3.3.3.3.3.3.3.3.3.3.3.- 3.3.3.f A v 1 n ! Z R E S 3.3.3.3.3.3.3.",
"3.3.3.3.3.3.3.3.3.3.3.X 3.3.3.V #.x j R A R E E W @.3.3.3.3.3.3.",
"3.3.3.3.3.3.3.3.3.3.3.3.3.3.3.3.Z x j n A ! A Q W @.3.3.3.3.3.3.",
"3.3.3.3.3.3.3.3.3.3.3.3.3.3.3.3.B j f A E R W $.R %.3.3.3.3.3.3.",
"3.3.3.3.3.3.3.3.3.3.3.3.3.3.3.3.3.> x A R W W #.@.R 3.3.3.3.3.3.",
"3.3.3.3.3.3.3.3.3.3.3.3.3.3.3.3.3.X 3.N E ! R $.V g 3.3.3.3.3.3.",
"3.3.3.3.3.3.3.3.3.3.3.3.3.3.3.3.3.3.3.3.D Z W B < * 3.3.3.3.3.3.",
"3.3.3.3.3.3.3.3.3.3.3.3.3.3.3.3.3.3.3.3.3.n l * # 3.3.3.3.3.3.3.",
"3.3.3.3.3.3.3.3.3.3.3.3.3.3.3.3.3.3.3.3.3.3.$ @ + 3.3.3.3.3.3.3.",
"3.3.3.3.3.3.3.3.3.3.3.3.3.3.3.3.3.3.3.3.3.3.3.3.3.3.3.3.3.3.3.3.",
"3.3.3.3.3.3.3.3.3.3.3.3.3.3.3.3.3.3.3.3.3.3.3.3.3.3.3.3.3.3.3.3.",
"3.3.3.3.3.3.3.3.3.3.3.3.3.3.3.3.3.3.3.3.3.3.3.3.3.3.3.3.3.3.3.3.",
"3.3.3.3.3.3.3.3.3.3.3.3.3.3.3.3.3.3.3.3.3.3.3.3.3.3.3.3.3.3.3.3."
};
