/* XPM */
static char *result[] = {
/* columns rows colors chars-per-pixel */
"32 32 135 2 ",
"   c #391D06",
".  c #3B1E0B",
"X  c #431C0B",
"o  c #42220C",
"O  c #4E2D0B",
"+  c #582C0C",
"@  c #4B310E",
"#  c #432210",
"$  c #492B11",
"%  c #512D11",
"&  c #533810",
"*  c #5A3914",
"=  c #58321D",
"-  c #64360F",
";  c #64390E",
":  c #6B3B0E",
">  c #713D0F",
",  c #653E14",
"<  c #6A3A11",
"1  c #603D19",
"2  c #733F11",
"3  c #7B321E",
"4  c #654318",
"5  c #764112",
"6  c #7B4315",
"7  c #7E4A16",
"8  c #7E5935",
"9  c #81210A",
"0  c #823309",
"q  c #823D13",
"w  c #B12808",
"e  c #80382A",
"r  c #A33D2F",
"t  c #DE1310",
"y  c #E01D09",
"u  c #ED1C10",
"i  c #E51E1F",
"p  c #EB1A19",
"a  c #CB2608",
"s  c #F72B2C",
"d  c #E42F33",
"f  c #F42631",
"g  c #F03F3D",
"h  c #845D0F",
"j  c #834B15",
"k  c #8B4F14",
"l  c #9C4C12",
"z  c #855017",
"x  c #8D5312",
"c  c #89531D",
"v  c #935414",
"b  c #905B17",
"n  c #9D5B16",
"m  c #9C5F18",
"M  c #A85C0C",
"N  c #A25D16",
"B  c #B25E16",
"V  c #956015",
"C  c #A56417",
"Z  c #AD6414",
"A  c #AD6418",
"S  c #B66A13",
"D  c #BB6C16",
"F  c #B36A19",
"G  c #BB6D18",
"H  c #AF7418",
"J  c #B37417",
"K  c #BF7517",
"L  c #BB731A",
"P  c #8D5F3E",
"I  c #A54421",
"U  c #AF463C",
"Y  c #A45C3D",
"T  c #8D6337",
"R  c #8B6830",
"E  c #8D623C",
"W  c #90653C",
"Q  c #94683E",
"!  c #B8732D",
"~  c #A76D31",
"^  c #C05411",
"/  c #E74A16",
"(  c #C06616",
")  c #CD6B16",
"_  c #C67612",
"`  c #CC7413",
"'  c #C47319",
"]  c #C97519",
"[  c #C5791A",
"{  c #CD7A1A",
"}  c #D77C17",
"|  c #D27B1A",
" . c #D97F1B",
".. c #D64020",
"X. c #FB3D45",
"o. c #906542",
"O. c #956B42",
"+. c #996E45",
"@. c #906C4B",
"#. c #967046",
"$. c #94744D",
"%. c #9C734A",
"&. c #997B4D",
"*. c #9F7D51",
"=. c #A67542",
"-. c #A4774C",
";. c #A1794E",
":. c #A57C51",
">. c #A97C53",
",. c #A27D58",
"<. c #CC534C",
"1. c #FC4E52",
"2. c #E85352",
"3. c #B9803C",
"4. c #DE8014",
"5. c #D2821B",
"6. c #DF851C",
"7. c #E1851B",
"8. c #E08E30",
"9. c #B48046",
"0. c #A48457",
"q. c #AB8155",
"w. c #AB8259",
"e. c #B38554",
"r. c #B2875A",
"t. c #B3895C",
"y. c #BC8E5D",
"u. c #BB915C",
"i. c #B08260",
"p. c #B38B61",
"a. c #B3866A",
"s. c #B58B68",
"d. c #BA9163",
"f. c #C39C60",
"g. c None",
/* pixels */
"g.g.g.g.g.g.g.g.g.g.g.g.g.g.g.g.g.g.g.g.g.g.g.g.g.g.g.g.g.g.g.g.",
"g.g.g.g.g.g.g.g.g.g.g.g.g.g.g.g.g.g.g.g.g.g.g.g.g.g.g.g.g.g.g.g.",
"g.g.g.g.g.g.g.g.g.o o g.g.g.g.g.g.g.g.g.g.g.g.g.g.g.g.g.g.g.g.g.",
"g.g.g.g.g.g.g.g.g.g.o X o g.g.g.g.g.g.g.g.g.g.g.g.g.g.g.g.g.g.g.",
"g.g.g.g.g.g.g.g.g.g.g.g.  g.g.g.g.g.g.g.g.g.g.g.g.g.g.g.g.g.g.g.",
"g.g.g.g.g.g.g.g.g.g.g.g.# % g.g.g.g.g.g.g.g.g.g.g.g.g.g.g.g.g.g.",
"g.g.g.g.g.g.g.g.g.g.g.e U r I g.g.g.g.g.g.g.g.g.g.g.g.g.g.g.g.g.",
"g.g.g.g.g.g.g.g.g.g.<.2.1.d ..g.g.g.g.g.g.g.g.g.g.g.g.g.g.g.g.g.",
"g.g.g.g.g.g.g.g.g.2.1.X.f p / g.g.g.g.g.g.g.g.g.g.g.g.g.g.g.g.g.",
"g.g.g.g.g.g.g.g.3 g s i u a B g.g.g.g.g.g.g.g.g.g.g.g.g.g.g.g.g.",
"g.g.g.g.g.g.g.g.g.g.t y w 0 - * = g.g.g.g.g.g.g.g.g.g.g.g.g.g.g.",
"g.g.g.g.g.g.g.g.g.g.g.9 + O O , 8 +.g.g.g.g.g.g.g.g.g.g.g.g.g.g.",
"g.g.g.g.g.g.g.g.g.g.o $ & 4 > c =.i.f.d.g.g.g.g.g.g.g.g.g.g.g.g.",
"g.g.g.g.g.g.g.g.g.g.* 5 x v v v ~ e.a.s.t.t.g.g.g.g.g.g.g.g.g.g.",
"g.g.g.g.g.g.g.g.g.g.v N v n N Z F 3.u.p.t.w.q.g.g.g.g.g.g.g.g.g.",
"g.g.g.g.g.g.g.g.g.g.h 6 j N | | ` 8.y.d.r.w.0.:.;.g.g.g.g.g.g.g.",
"g.g.g.g.g.g.g.g.g.g.g.4 m G ' G D g.g.p.w.w.>.*.&.%.+.g.g.g.g.g.",
"g.g.g.g.g.g.g.g.g.g.g.g.' 5 2 2 : g.g.w.w.:.>.-.%.+.O.Q @.g.g.g.",
"g.g.g.g.g.g.g.g.g.g.g.g.l $ < k M M ' >.,.:.-.;.%.+.Q T T E g.g.",
"g.g.g.g.g.g.g.g.g.g.g.g.A b c G 4.} 4.! g.%.&.%.%.+.Q E T W g.g.",
"g.g.g.g.g.g.g.g.g.g.g.J 5.F j v ' { ] L g.%.$.+.+.O.O.Q E g.g.g.",
"g.g.g.g.g.g.g.g.g.g.g.J A v j n ' ] ] _ g.g.Y O.O.Q W E E g.g.g.",
"g.g.g.g.g.g.g.g.g.g.g.C 7 j N ' ] G L S g.g.g.o.W E E o.E g.g.g.",
"g.g.g.g.g.g.g.g.g.g.g.4 z N G ' ' G ' B g.g.g.g.g.P E R T g.g.g.",
"g.g.g.g.g.g.g.g.g.g.g.q L L ] _ ] [ ] ( g.g.g.g.g.g.g.g.g.g.g.g.",
"g.g.g.g.g.g.g.g.g.g.g.g.) [ { ] { { { [ g.g.g.g.g.g.g.g.g.g.g.g.",
"g.g.g.g.g.g.g.g.g.g.g.g.' ' { | 6.| 5.| g.g.g.g.g.g.g.g.g.g.g.g.",
"g.g.g.g.g.g.g.g.g.g.g.g.J D 6.7.7.5.7.g.g.g.g.g.g.g.g.g.g.g.g.g.",
"g.g.g.g.g.g.g.g.g.g.g.g.b N ' G G L g.g.g.g.g.g.g.g.g.g.g.g.g.g.",
"g.g.g.g.g.g.g.g.g.g.g.g.; , < - 5 g.g.g.g.g.g.g.g.g.g.g.g.g.g.g.",
"g.g.g.g.g.g.g.g.g.g.g.g.g.X X . g.g.g.g.g.g.g.g.g.g.g.g.g.g.g.g.",
"g.g.g.g.g.g.g.g.g.g.g.g.g.g.g.g.g.g.g.g.g.g.g.g.g.g.g.g.g.g.g.g."
};
