/* XPM */
static char *result[] = {
/* columns rows colors chars-per-pixel */
"32 32 135 2 ",
"   c #391D06",
".  c #3B1E0B",
"X  c #431C0B",
"o  c #42220C",
"O  c #4E2D0B",
"+  c #582C0C",
"@  c #4B310E",
"#  c #432210",
"$  c #492B11",
"%  c #512D11",
"&  c #533810",
"*  c #5A3914",
"=  c #58321D",
"-  c #64360F",
";  c #64390E",
":  c #6B3B0E",
">  c #713D0F",
",  c #653E14",
"<  c #6A3A11",
"1  c #603D19",
"2  c #733F11",
"3  c #7B321E",
"4  c #654318",
"5  c #764112",
"6  c #7B4315",
"7  c #7E4A16",
"8  c #7E5935",
"9  c #81210A",
"0  c #823309",
"q  c #823D13",
"w  c #B12808",
"e  c #80382A",
"r  c #A33D2F",
"t  c #DE1310",
"y  c #E01D09",
"u  c #ED1C10",
"i  c #E51E1F",
"p  c #EB1A19",
"a  c #CB2608",
"s  c #F72B2C",
"d  c #E42F33",
"f  c #F42631",
"g  c #F03F3D",
"h  c #845D0F",
"j  c #834B15",
"k  c #8B4F14",
"l  c #9C4C12",
"z  c #855017",
"x  c #8D5312",
"c  c #89531D",
"v  c #935414",
"b  c #905B17",
"n  c #9D5B16",
"m  c #9C5F18",
"M  c #A85C0C",
"N  c #A25D16",
"B  c #B25E16",
"V  c #956015",
"C  c #A56417",
"Z  c #AD6414",
"A  c #AD6418",
"S  c #B66A13",
"D  c #BB6C16",
"F  c #B36A19",
"G  c #BB6D18",
"H  c #AF7418",
"J  c #B37417",
"K  c #BF7517",
"L  c #BB731A",
"P  c #8D5F3E",
"I  c #A54421",
"U  c #AF463C",
"Y  c #A45C3D",
"T  c #8D6337",
"R  c #8B6830",
"E  c #8D623C",
"W  c #90653C",
"Q  c #94683E",
"!  c #B8732D",
"~  c #A76D31",
"^  c #C05411",
"/  c #E74A16",
"(  c #C06616",
")  c #CD6B16",
"_  c #C67612",
"`  c #CC7413",
"'  c #C47319",
"]  c #C97519",
"[  c #C5791A",
"{  c #CD7A1A",
"}  c #D77C17",
"|  c #D27B1A",
" . c #D97F1B",
".. c #D64020",
"X. c #FB3D45",
"o. c #906542",
"O. c #956B42",
"+. c #996E45",
"@. c #906C4B",
"#. c #967046",
"$. c #94744D",
"%. c #9C734A",
"&. c #997B4D",
"*. c #9F7D51",
"=. c #A67542",
"-. c #A4774C",
";. c #A1794E",
":. c #A57C51",
">. c #A97C53",
",. c #A27D58",
"<. c #CC534C",
"1. c #FC4E52",
"2. c #E85352",
"3. c #B9803C",
"4. c #DE8014",
"5. c #D2821B",
"6. c #DF851C",
"7. c #E1851B",
"8. c #E08E30",
"9. c #B48046",
"0. c #A48457",
"q. c #AB8155",
"w. c #AB8259",
"e. c #B38554",
"r. c #B2875A",
"t. c #B3895C",
"y. c #BC8E5D",
"u. c #BB915C",
"i. c #B08260",
"p. c #B38B61",
"a. c #B3866A",
"s. c #B58B68",
"d. c #BA9163",
"f. c #C39C60",
"g. c None",
/* pixels */
"g.g.g.g.g.g.g.g.g.g.g.g.g.g.g.g.g.g.g.g.g.g.g.g.g.g.g.g.g.g.g.g.",
"g.g.g.g.g.g.g.g.g.g.g.g.g.g.g.g.g.g.g.g.g.g.g.g.g.g.g.g.g.g.g.g.",
"g.g.g.g.g.g.g.g.g.g.g.g.g.g.g.g.g.g.g.g.g.o o g.g.g.g.g.g.g.g.g.",
"g.g.g.g.g.g.g.g.g.g.g.g.g.g.g.g.g.g.g.o . o g.g.g.g.g.g.g.g.g.g.",
"g.g.g.g.g.g.g.g.g.g.g.g.g.g.g.g.g.g.g.  g.g.g.g.g.g.g.g.g.g.g.g.",
"g.g.g.g.g.g.g.g.g.g.g.g.g.g.g.g.g.g.% # g.g.g.g.g.g.g.g.g.g.g.g.",
"g.g.g.g.g.g.g.g.g.g.g.g.g.g.g.g.g.I r U e g.g.g.g.g.g.g.g.g.g.g.",
"g.g.g.g.g.g.g.g.g.g.g.g.g.g.g.g.g...d 1.2.<.g.g.g.g.g.g.g.g.g.g.",
"g.g.g.g.g.g.g.g.g.g.g.g.g.g.g.g.g./ p f X.1.2.g.g.g.g.g.g.g.g.g.",
"g.g.g.g.g.g.g.g.g.g.g.g.g.g.g.g.g.^ a u i s g 3 g.g.g.g.g.g.g.g.",
"g.g.g.g.g.g.g.g.g.g.g.g.g.g.g.= * ; 0 w y t g.g.g.g.g.g.g.g.g.g.",
"g.g.g.g.g.g.g.g.g.g.g.g.g.g.#.8 1 O @ + 9 g.g.g.g.g.g.g.g.g.g.g.",
"g.g.g.g.g.g.g.g.g.g.g.g.d.f.r.=.c > : & $ # g.g.g.g.g.g.g.g.g.g.",
"g.g.g.g.g.g.g.g.g.g.r.t.s.a.e.~ n x v x 5 * g.g.g.g.g.g.g.g.g.g.",
"g.g.g.g.g.g.g.g.g.q.w.t.p.u.3.G Z C n v n v g.g.g.g.g.g.g.g.g.g.",
"g.g.g.g.g.g.g.;.:.0.w.r.p.u.8.` | { N 7 j h g.g.g.g.g.g.g.g.g.g.",
"g.g.g.g.g.+.%.&.*.>.w.w.p.g.g.S D ( ' m 4 g.g.g.g.g.g.g.g.g.g.g.",
"g.g.g.@.Q O.+.%.-.>.>.w.w.g.g.: 2 2 5 ' g.g.g.g.g.g.g.g.g.g.g.g.",
"g.g.T T T Q +.%.-.-.:.,.=.] M N k < $ l g.g.g.g.g.g.g.g.g.g.g.g.",
"g.g.P T W O.+.%.%.&.%.g.! 4.}  .G x b A g.g.g.g.g.g.g.g.g.g.g.g.",
"g.g.g.E o.O.+.+.#.$.$.g.L ' | ' b j F | J g.g.g.g.g.g.g.g.g.g.g.",
"g.g.g.E W W Q Q O.Y g.g._ ] ] ' m j v A J g.g.g.g.g.g.g.g.g.g.g.",
"g.g.g.E E E W W o.g.g.g.S L ' ] ' N j 7 C g.g.g.g.g.g.g.g.g.g.g.",
"g.g.g.T R P P g.g.g.g.g.B ' G L ' D N z 1 g.g.g.g.g.g.g.g.g.g.g.",
"g.g.g.g.g.g.g.g.g.g.g.g.( ] ] ] ] ] G L q g.g.g.g.g.g.g.g.g.g.g.",
"g.g.g.g.g.g.g.g.g.g.g.g.[ { { | [ ] [ ) g.g.g.g.g.g.g.g.g.g.g.g.",
"g.g.g.g.g.g.g.g.g.g.g.g.| 5.| 6.| { [ ' g.g.g.g.g.g.g.g.g.g.g.g.",
"g.g.g.g.g.g.g.g.g.g.g.g.g.6.5.6.7.7.G J g.g.g.g.g.g.g.g.g.g.g.g.",
"g.g.g.g.g.g.g.g.g.g.g.g.g.g.L G G ] N V g.g.g.g.g.g.g.g.g.g.g.g.",
"g.g.g.g.g.g.g.g.g.g.g.g.g.g.g.5 - : ; ; g.g.g.g.g.g.g.g.g.g.g.g.",
"g.g.g.g.g.g.g.g.g.g.g.g.g.g.g.g.. X X g.g.g.g.g.g.g.g.g.g.g.g.g.",
"g.g.g.g.g.g.g.g.g.g.g.g.g.g.g.g.g.g.g.g.g.g.g.g.g.g.g.g.g.g.g.g."
};
