/* XPM */
static char *result[] = {
/* columns rows colors chars-per-pixel */
"32 32 135 2 ",
"   c #331D04",
".  c #391C06",
"X  c #3F1C0C",
"o  c #3E2209",
"O  c #491E0A",
"+  c #42220C",
"@  c #45300F",
"#  c #53310E",
"$  c #58310E",
"%  c #462911",
"&  c #4D2E13",
"*  c #552D13",
"=  c #6F260B",
"-  c #662D0C",
";  c #62340F",
":  c #6E3D0D",
">  c #753A0B",
",  c #642F1C",
"<  c #683613",
"1  c #643D12",
"2  c #693E12",
"3  c #733E13",
"4  c #76371C",
"5  c #794313",
"6  c #7D4913",
"7  c #614023",
"8  c #A4140A",
"9  c #BF2907",
"0  c #B12E08",
"q  c #EC160F",
"w  c #E71E0D",
"e  c #E91A1E",
"r  c #D9250B",
"t  c #E7231C",
"y  c #CC3825",
"u  c #CA3F39",
"i  c #D33B34",
"p  c #E62122",
"a  c #EB2F34",
"s  c #F63B3D",
"d  c #855E0E",
"f  c #9F580D",
"g  c #834B14",
"h  c #884D12",
"j  c #855116",
"k  c #8B5015",
"l  c #935414",
"z  c #9B5610",
"x  c #935817",
"c  c #9C5A16",
"v  c #915518",
"b  c #AF4F12",
"n  c #A25E16",
"m  c #BF5912",
"M  c #8D6319",
"N  c #A96216",
"B  c #A86A17",
"V  c #A76218",
"C  c #AC6518",
"Z  c #A96D19",
"A  c #B26616",
"S  c #B56916",
"D  c #BA6A15",
"F  c #B26918",
"G  c #BC6D18",
"H  c #AD7317",
"J  c #BD7319",
"K  c #B37A1A",
"L  c #895929",
"P  c #9B5F3C",
"I  c #8B6B2A",
"U  c #8F6233",
"Y  c #8D623C",
"T  c #91663D",
"R  c #94693E",
"E  c #BD7323",
"W  c #A36A30",
"Q  c #CF4C0F",
"!  c #C05513",
"~  c #C4700F",
"^  c #C36D14",
"/  c #C66F18",
"(  c #D26B1A",
")  c #C47517",
"_  c #CD7514",
"`  c #CE7917",
"'  c #C47319",
"]  c #CA7619",
"[  c #CD7B1A",
"{  c #D37C1A",
"}  c #E26C19",
"|  c #C07728",
" . c #F73840",
".. c #BB4941",
"X. c #8E6A47",
"o. c #956B42",
"O. c #986F44",
"+. c #996D4B",
"@. c #997047",
"#. c #9C744A",
"$. c #947D4E",
"%. c #9E7B51",
"&. c #B36541",
"*. c #A2764B",
"=. c #AF7249",
"-. c #A4794D",
";. c #AA7C4C",
":. c #B17E47",
">. c #A57D53",
",. c #A97D52",
"<. c #D4564F",
"1. c #F65352",
"2. c #FA5254",
"3. c #FF555B",
"4. c #DE8013",
"5. c #DD821B",
"6. c #E1871C",
"7. c #E38F30",
"8. c #9F8558",
"9. c #948C59",
"0. c #B48146",
"q. c #BE8748",
"w. c #AB8256",
"e. c #A5815E",
"r. c #AF855A",
"t. c #B28A56",
"y. c #B0845A",
"u. c #B38A5D",
"i. c #B98E59",
"p. c #B38464",
"a. c #B68D64",
"s. c #B4876D",
"d. c #B99165",
"f. c #DABF45",
"g. c None",
/* pixels */
"g.g.g.g.g.g.g.g.g.g.g.g.g.g.g.g.g.g.g.g.g.g.g.g.g.g.g.g.g.g.g.g.",
"g.g.g.g.g.g.g.g.g.g.g.g.g.g.g.g.g.g.g.g.g.g.g.g.g.g.g.g.g.g.g.g.",
"g.g.g.g.g.g.g.g.g.g.g.g.g.g.g.g.g.g.g.g.g.g.g.g.g.g.g.g.g.g.g.g.",
"g.g.g.g.g.g.g.g.g.g.g.g.g.g.g.g.g.g.g.g.g.g.g.g.g.g.g.g.g.g.g.g.",
"g.g.g.g.g.g.g.g.g.g.g.g.g.g.g.g.g.g.g.g.g.g.g.g.g.g.+ + + + g.g.",
"g.g.g.g.g.g.g.g.g.g.g.g.g.g.g.g.g.g.g.g.g.g.g.g.g.+ . . g.g.g.g.",
"g.g.g.g.g.g.g.g.g.g.g.g.g.g.g.g.g.g.g.g.g.g.g.g.4 *   g.g.g.g.g.",
"g.g.g.g.g.g.g.g.g.g.g.g.g.g.g.g.g.g.g.g.g.g.( y u .., g.g.g.g.g.",
"g.g.g.g.g.g.g.g.g.g.g.g.g.g.g.g.g.g.g.g.g.g.( t a 3...g.g.g.g.g.",
"g.g.g.g.g.g.g.g.g.g.g.g.g.g.g.g.g.g.g.g.g.g.! r e  .2.<.g.g.g.g.",
"g.g.g.g.g.g.g.g.g.g.g.g.g.g.g.g.g.f.t.Y 7 # > 0 w p s 1.g.g.g.g.",
"g.g.g.g.g.g.g.g.g.g.9.&.=.w.r.u.a.s.a.;.L $ # ; 9 q p i g.g.g.g.",
"g.g.g.g.g.Y X.R o.@.#.%.8.w.r.u.a.i.0.W v 5 $ o = 8 g.g.g.g.g.g.",
"g.g.g.g.Y Y U T o.@.*.*.,.w.r.u.d.q.E N z l k 5 % g.g.g.g.g.g.g.",
"g.g.g.g.g.Y Y T o.@.*.-.>.w.w.r.g.7.` _ G n c l 2 g.g.g.g.g.g.g.",
"g.g.g.g.g.Y T o.O.@.#.*.*.>.e.;.g.g.D [ [ c g n l g.g.g.g.g.g.g.",
"g.g.g.g.Y Y T o.o.@.@.$.#.,.:.| f : 3 l F F 5 3 d g.g.g.g.g.g.g.",
"g.g.g.g.Y Y Y Y R o.o.+.g.g.' { _ D h ; * ) M & g.g.g.g.g.g.g.g.",
"g.g.g.g.g.I Y Y Y o.P g.g.g.^ ` { { C 5 & g.g.g.g.g.g.g.g.g.g.g.",
"g.g.g.g.g.g.g.g.g.g.g.g.g.) ' ] J V g c Z b g.g.g.g.g.g.g.g.g.g.",
"g.g.g.g.g.g.g.g.g.g.g.g.g.Z J ' ] n 6 n { K g.g.g.g.g.g.g.g.g.g.",
"g.g.g.g.g.g.g.g.g.g.g.g.! ' J G ' / v k F H g.g.g.g.g.g.g.g.g.g.",
"g.g.g.g.g.g.g.g.g.g.g.g.J ] ' ' ' ' c g j g.g.g.g.g.g.g.g.g.g.g.",
"g.g.g.g.g.g.g.g.g.g.g.g.[ [ { ] ] ' A v 1 g.g.g.g.g.g.g.g.g.g.g.",
"g.g.g.g.g.g.g.g.g.g.g.g.5.[ 5.{ ] ] J J < g.g.g.g.g.g.g.g.g.g.g.",
"g.g.g.g.g.g.g.g.g.g.g.g.{ 5.6.5.[ [ ' Q g.g.g.g.g.g.g.g.g.g.g.g.",
"g.g.g.g.g.g.g.g.g.g.g.g.g.' [ 5.5.J J g.g.g.g.g.g.g.g.g.g.g.g.g.",
"g.g.g.g.g.g.g.g.g.g.g.g.g.g g n J V Z g.g.g.g.g.g.g.g.g.g.g.g.g.",
"g.g.g.g.g.g.g.g.g.g.g.g.g.g.o $ 2 6 g.g.g.g.g.g.g.g.g.g.g.g.g.g.",
"g.g.g.g.g.g.g.g.g.g.g.g.g.g.g.X O g.g.g.g.g.g.g.g.g.g.g.g.g.g.g.",
"g.g.g.g.g.g.g.g.g.g.g.g.g.g.g.g.g.g.g.g.g.g.g.g.g.g.g.g.g.g.g.g.",
"g.g.g.g.g.g.g.g.g.g.g.g.g.g.g.g.g.g.g.g.g.g.g.g.g.g.g.g.g.g.g.g."
};
