/* XPM */
static char *result[] = {
/* columns rows colors chars-per-pixel */
"32 32 138 2 ",
"   c #361D05",
".  c #3C1E0A",
"X  c #461909",
"o  c #43230C",
"O  c #4C270C",
"+  c #492A0F",
"@  c #532D0E",
"#  c #582F0F",
"$  c #53320D",
"%  c #5A320E",
"&  c #432C13",
"*  c #4D2F10",
"=  c #582E13",
"-  c #4C3212",
";  c #5F3915",
":  c #5A3819",
">  c #612B0C",
",  c #63370A",
"<  c #6E3C0F",
"1  c #6E3A12",
"2  c #7E3828",
"3  c #674012",
"4  c #684011",
"5  c #744613",
"6  c #7C4511",
"7  c #7C4913",
"8  c #7E5118",
"9  c #664429",
"0  c #80180A",
"q  c #872D0A",
"w  c #B43408",
"e  c #8E3423",
"r  c #983E23",
"t  c #E31A0D",
"y  c #E91719",
"u  c #F21715",
"i  c #C52208",
"p  c #E22209",
"a  c #C62822",
"s  c #DF2D22",
"d  c #D63D3A",
"f  c #E62023",
"g  c #F22831",
"h  c #F43334",
"j  c #F4373F",
"k  c #8C4C09",
"l  c #91500F",
"z  c #854C14",
"x  c #884D16",
"c  c #884F18",
"v  c #8D5217",
"b  c #945515",
"n  c #935B16",
"m  c #9D5A14",
"M  c #BB4D1E",
"N  c #A35B15",
"B  c #AD5B13",
"V  c #976410",
"C  c #AB6317",
"Z  c #AC6816",
"A  c #AB6418",
"S  c #AE6818",
"D  c #B16617",
"F  c #B56816",
"G  c #BA6D16",
"H  c #BA6D18",
"J  c #B4731A",
"K  c #BB7219",
"L  c #84592D",
"P  c #8D5F3F",
"I  c #AB4539",
"U  c #9D6126",
"Y  c #8D6435",
"T  c #8D623B",
"R  c #91663C",
"E  c #926A3E",
"W  c #AE6E2A",
"Q  c #B76F22",
"!  c #AE732E",
"~  c #BA7E3E",
"^  c #D94A0F",
"/  c #C05714",
"(  c #D15A12",
")  c #C46C15",
"_  c #C37315",
"`  c #C97110",
"'  c #C47815",
"]  c #C47419",
"[  c #CA761A",
"{  c #C57A1A",
"}  c #CC7A1A",
"|  c #D17715",
" . c #D17B17",
".. c #DA7E17",
"X. c #D47D1A",
"o. c #D87E1B",
"O. c #E56A19",
"+. c #8F6940",
"@. c #8C6948",
"#. c #956640",
"$. c #956B41",
"%. c #986D44",
"&. c #9A7147",
"*. c #95724A",
"=. c #9C734B",
"-. c #957C4E",
";. c #9B7B4E",
":. c #A06041",
">. c #A1754A",
",. c #A3784D",
"<. c #A97A4A",
"1. c #A17650",
"2. c #A37D52",
"3. c #A97E53",
"4. c #B07E5C",
"5. c #C34F47",
"6. c #DE4D48",
"7. c #FB4246",
"8. c #E65556",
"9. c #FD5056",
"0. c #F35B58",
"q. c #BC823E",
"w. c #D4811B",
"e. c #DC821B",
"r. c #E1861C",
"t. c #DE9038",
"y. c #A28256",
"u. c #AB8256",
"i. c #A5815E",
"p. c #AF875E",
"a. c #B0855A",
"s. c #B48A5B",
"d. c #BE8E59",
"f. c #B08465",
"g. c #B68E63",
"h. c #B68B6D",
"j. c #BE9561",
"k. c None",
/* pixels */
"k.k.k.k.k.k.k.k.k.k.k.k.k.k.k.k.k.k.k.k.k.k.k.k.k.k.k.k.k.k.k.k.",
"k.k.k.k.k.k.k.k.k.k.k.k.k.k.k.k.k.k.k.k.k.k.k.k.k.k.k.k.k.k.k.k.",
"k.k.k.k.k.k.k.k.k.k.k.k.k.k.k.k.k.k.k.k.k.k.k.k.k.k.k.k.k.k.k.k.",
"k.k.k.k.k.k.k.k.k.k.k.k.k.k.k.k.k.k.k.k.k.k.k.k.k.k.k.k.k.k.k.k.",
"k.k.k.k.k.k.k.k.k.k.k.k.k.k.k.k.k.k.k.k.k.k.k.k.k.k.k.k.k.k.k.k.",
"k.k.k.k.k.k.k.k.k.k.k.k.k.k.k.k.k.k.k.k.k.k.k.k.k.k.k.k.k.k.k.k.",
"k.k.k.k.k.k.k.k.k.k.k.k.k.k.k.k.k.k.k.k.k.k.k.k.k.k.k.k.k.k.k.k.",
"k.k.k.k.k.k.k.k.k.k.k.k.k.k.k.k.k.k.k.k.k.k.k.k.k.k.k.k.k.k.k.k.",
"k.k.k.k.Y @.k.k.k.k.k.k.k.k.k.k.k.k.k.k.k.k.k.k.k.k.. o o k.k.k.",
"k.k.k.k.P Y R $.%.;.2.k.k.k.k.k.k.k.k.k.k.k.k.M r =     . o k.k.",
"k.k.k.k.T T R E %.=.;.2.u.u.s.f.k.k.k.k.k.k.O.s d I o k.k.k.k.k.",
"k.k.k.k.R R E &.&.=.,.y.u.a.s.g.h.j.1.9 : n ^ y j 8.e k.k.k.k.k.",
"k.k.T T T $.$.&.=.,.2.3.u.a.g.g.g.4.<.L * , w t g 9.5.k.k.k.k.k.",
"k.k.Y T T E $.&.&.,.1.3.u.f.g.d.q.! U c % $ q p f 7.0.k.k.k.k.k.",
"k.k.k.Y P T E $.*.;.=.2.i.3.k.t.} G N l 5 - > i u h 6.k.k.k.k.k.",
"k.k.k.k.k.T E #.E >.k.k.~ W k.k.| | F m v 1 * 0 k.a e k.k.k.k.k.",
"k.k.k.k.k.k.k.k.k.k.k.H X.` k < N  .H n m z * k.k.k.k.k.k.k.k.k.",
"k.k.k.k.k.k.k.k.k.k.{ )  ..._ z < N H x v N 1 k.k.k.k.k.k.k.k.k.",
"k.k.k.k.k.k.k.k.k.B K [ [ [ } m # = { 8 1 V k.k.k.k.k.k.k.k.k.k.",
"k.k.k.k.k.k.k.k.M ) K ] [ A c b 5 1 k.k.& k.k.k.k.k.k.k.k.k.k.k.",
"k.k.k.k.k.k.k.k.' [ K H [ C 7 m K N k.k.k.k.k.k.k.k.k.k.k.k.k.k.",
"k.k.k.k.k.k.k.w.w.{ ] _ ] D c N w.H k.k.k.k.k.k.k.k.k.k.k.k.k.k.",
"k.k.k.k.k.k.k.r.[ ..} [ [ A c v J k.k.k.k.k.k.k.k.k.k.k.k.k.k.k.",
"k.k.k.k.k.k.k.w.e.r.} [ ] F v 5 k.k.k.k.k.k.k.k.k.k.k.k.k.k.k.k.",
"k.k.k.k.k.k.k.S o.r.o.} [ ] V : k.k.k.k.k.k.k.k.k.k.k.k.k.k.k.k.",
"k.k.k.k.k.k.k.6 m  .e.] { ( k.k.k.k.k.k.k.k.k.k.k.k.k.k.k.k.k.k.",
"k.k.k.k.k.k.k.O $ b K Z J k.k.k.k.k.k.k.k.k.k.k.k.k.k.k.k.k.k.k.",
"k.k.k.k.k.k.k.k.. @ 7 n k.k.k.k.k.k.k.k.k.k.k.k.k.k.k.k.k.k.k.k.",
"k.k.k.k.k.k.k.k.k.X k.k.k.k.k.k.k.k.k.k.k.k.k.k.k.k.k.k.k.k.k.k.",
"k.k.k.k.k.k.k.k.k.k.k.k.k.k.k.k.k.k.k.k.k.k.k.k.k.k.k.k.k.k.k.k.",
"k.k.k.k.k.k.k.k.k.k.k.k.k.k.k.k.k.k.k.k.k.k.k.k.k.k.k.k.k.k.k.k.",
"k.k.k.k.k.k.k.k.k.k.k.k.k.k.k.k.k.k.k.k.k.k.k.k.k.k.k.k.k.k.k.k."
};
