/* XPM */
static char *result[] = {
/* columns rows colors chars-per-pixel */
"32 32 137 2 ",
"   c #331B04",
".  c #3B1D0C",
"X  c #3F200A",
"o  c #451B0A",
"O  c #41220C",
"+  c #4C200E",
"@  c #4B2C0D",
"#  c #59270C",
"$  c #4C350F",
"%  c #5B320F",
"&  c #402410",
"*  c #522912",
"=  c #523014",
"-  c #5E3611",
";  c #573811",
":  c #5E3913",
">  c #55361B",
",  c #632E0C",
"<  c #6D3209",
"1  c #67380F",
"2  c #733F0E",
"3  c #633912",
"4  c #6E3D11",
"5  c #6B3320",
"6  c #7E430E",
"7  c #674217",
"8  c #694115",
"9  c #7B4311",
"0  c #7D4B17",
"q  c #674229",
"w  c #7B4E21",
"e  c #795334",
"r  c #983F12",
"t  c #8F3928",
"y  c #E71C18",
"u  c #EB1919",
"i  c #F51918",
"p  c #C72506",
"a  c #C72806",
"s  c #C52108",
"d  c #CD382C",
"f  c #E23734",
"g  c #ED373D",
"h  c #FA393D",
"j  c #864909",
"k  c #824914",
"l  c #884D16",
"z  c #8C5214",
"x  c #945515",
"c  c #995710",
"v  c #925916",
"b  c #9B5B15",
"n  c #A44A1B",
"m  c #A35D15",
"M  c #BE5611",
"N  c #93610F",
"B  c #9C6317",
"V  c #A66017",
"C  c #AD6519",
"Z  c #B36615",
"A  c #B36A15",
"S  c #BB6C17",
"D  c #BF6618",
"F  c #B26C19",
"G  c #BD6E18",
"H  c #B47219",
"J  c #BC7119",
"K  c #8E5E3E",
"L  c #A95337",
"P  c #8E6437",
"I  c #8D623B",
"U  c #9C6530",
"Y  c #91653D",
"T  c #946B3F",
"R  c #A86E2B",
"E  c #BB7829",
"W  c #D1400B",
"Q  c #D04B10",
"!  c #E4411B",
"~  c #C56F14",
"^  c #C26D18",
"/  c #D56F1C",
"(  c #DF6E1B",
")  c #C57013",
"_  c #CB7514",
"`  c #C37319",
"'  c #C97619",
"]  c #C57B1A",
"[  c #CC7A1A",
"{  c #D07611",
"}  c #D87E17",
"|  c #D27C19",
" . c #DA7F1B",
".. c #FC3B44",
"X. c #8C6847",
"o. c #946B42",
"O. c #9A6F44",
"+. c #967045",
"@. c #9B7146",
"#. c #96714B",
"$. c #9A7349",
"%. c #9B7A4E",
"&. c #947752",
"*. c #9D7651",
"=. c #9A7F51",
"-. c #A06544",
";. c #AF7941",
":. c #A2764C",
">. c #AE774C",
",. c #A47A4E",
"<. c #B77E42",
"1. c #A47C53",
"2. c #AB7E54",
"3. c #B07D5B",
"4. c #C74C43",
"5. c #CB4B46",
"6. c #DE5555",
"7. c #E95555",
"8. c #FB5A58",
"9. c #CD821B",
"0. c #D5821C",
"q. c #DC821B",
"w. c #E3841B",
"e. c #D38B37",
"r. c #A38357",
"t. c #AC8155",
"y. c #A6825F",
"u. c #AC855A",
"i. c #B78951",
"p. c #B1875C",
"a. c #B48A5B",
"s. c #BA8D5B",
"d. c #B79053",
"f. c #B58E62",
"g. c #B68B6A",
"h. c #BC9169",
"j. c None",
/* pixels */
"j.j.j.j.j.j.j.j.j.j.j.j.j.j.j.j.j.j.j.j.j.j.j.j.j.j.j.j.j.j.j.j.",
"j.j.j.j.j.j.j.j.j.j.j.j.j.j.j.j.j.j.j.j.j.j.j.j.j.j.j.j.j.j.j.j.",
"j.j.j.j.j.j.j.j.j.j.j.j.j.j.j.j.j.j.j.j.j.j.j.j.j.j.j.j.j.j.j.j.",
"j.j.j.j.j.j.j.j.j.j.j.j.j.j.j.j.j.j.j.j.j.j.j.j.j.j.j.j.j.j.j.j.",
"j.j.j.j.j.P X.j.j.j.j.j.j.j.j.j.j.j.j.j.j.j.j.j.j.j.j.j.j.j.j.j.",
"j.j.j.j.K P P o.j.j.j.j.j.j.j.j.j.j.j.j.j.j.j.j.j.j.j.j.j.j.j.j.",
"j.j.j.j.K I P o.o.$.j.j.j.j.j.j.j.j.j.j.j.j.j.j.j.j.j.j.j.j.j.j.",
"j.j.I I Y Y Y o.o.$.=.j.j.j.j.j.j.j.j.j.j.j.j.j.j.j.j.j.j.j.j.j.",
"j.j.P I Y o.o.@.@.$.:.1.>.j.j.j.j.j.j.j.j.j.j.j.j.j.j.j.j.j.j.j.",
"j.j.j.X.I T O.$.:.,.1.r.u.u.a.j.j.j.j.j.j.j.j.j.j.j.j.j.j.j.j.j.",
"j.j.j.K P o.+.$.:.,.1.t.t.a.a.g.j.j.j.j.j.j.j.j.j.j.j.j.j.j.j.j.",
"j.j.j.j.I o.o.#.%.:.1.t.p.f.f.g.h.d.q j.j.j./ n j.j.X j.j.j.j.j.",
"j.j.j.j.j.j.L -.&.%.1.3.y.g.s.i.3.2.e > j.( ! d t O   O O j.j.j.",
"j.j.j.j.j.j.j.j.j.j.<.<.j.j.e.E R U w @ 6 W u g 5.* j.j.O O j.j.",
"j.j.j.j.j.j.j.j.j.G } G j.j.0.) V x 9 @ < a u ..6.5 j.j.j.j.j.j.",
"j.j.j.j.j.j.M A _ _ } { j 9 ) | A c 6 $ , p y ..7.j.j.j.j.j.j.j.",
"j.j.j.j.j.D ^ H ' ' [  .m 4 m [ C b z ; # s i h 8.j.j.j.j.j.j.j.",
"j.j.j.j.9.] ' J ^ ' C F m - 4 G c x x : + j.u f 4.j.j.j.j.j.j.j.",
"j.j.j.w.[ [ ' ` ` ^ x 0 z - 3 ] k l m 3 & j.j.j.j.j.j.j.j.j.j.j.",
"j.j.j.0.0.q.[ ` ' S z z F x j.j.7 8 N j.j.j.j.j.j.j.j.j.j.j.j.j.",
"j.j.z ' w.q.[ ' ` m l b 0.H j.j.j.j.j.j.j.j.j.j.j.j.j.j.j.j.j.j.",
"j.j.1 b q.q.| [ ` m 0 B ] j.j.j.j.j.j.j.j.j.j.j.j.j.j.j.j.j.j.j.",
"j.j.O 4 J  .' ] ' B 7 j.j.j.j.j.j.j.j.j.j.j.j.j.j.j.j.j.j.j.j.j.",
"j.j.. @ l F H ^ Q r = j.j.j.j.j.j.j.j.j.j.j.j.j.j.j.j.j.j.j.j.j.",
"j.j.j.o % z j.j.j.j.j.j.j.j.j.j.j.j.j.j.j.j.j.j.j.j.j.j.j.j.j.j.",
"j.j.j.j.j.j.j.j.j.j.j.j.j.j.j.j.j.j.j.j.j.j.j.j.j.j.j.j.j.j.j.j.",
"j.j.j.j.j.j.j.j.j.j.j.j.j.j.j.j.j.j.j.j.j.j.j.j.j.j.j.j.j.j.j.j.",
"j.j.j.j.j.j.j.j.j.j.j.j.j.j.j.j.j.j.j.j.j.j.j.j.j.j.j.j.j.j.j.j.",
"j.j.j.j.j.j.j.j.j.j.j.j.j.j.j.j.j.j.j.j.j.j.j.j.j.j.j.j.j.j.j.j.",
"j.j.j.j.j.j.j.j.j.j.j.j.j.j.j.j.j.j.j.j.j.j.j.j.j.j.j.j.j.j.j.j.",
"j.j.j.j.j.j.j.j.j.j.j.j.j.j.j.j.j.j.j.j.j.j.j.j.j.j.j.j.j.j.j.j.",
"j.j.j.j.j.j.j.j.j.j.j.j.j.j.j.j.j.j.j.j.j.j.j.j.j.j.j.j.j.j.j.j."
};
