/* XPM */
static char *result[] = {
/* columns rows colors chars-per-pixel */
"32 32 136 2 ",
"   c #331B04",
".  c #3B1D0C",
"X  c #3F200A",
"o  c #451B0A",
"O  c #41220C",
"+  c #4D200E",
"@  c #4B2C0D",
"#  c #59280C",
"$  c #4C350F",
"%  c #5C330F",
"&  c #402410",
"*  c #512912",
"=  c #523015",
"-  c #5D3611",
";  c #563811",
":  c #5E3913",
">  c #55361B",
",  c #632E0C",
"<  c #6D3209",
"1  c #733F0E",
"2  c #623811",
"3  c #6C3C11",
"4  c #6A321F",
"5  c #713E12",
"6  c #7E440E",
"7  c #694115",
"8  c #7B4411",
"9  c #7B4916",
"0  c #674128",
"q  c #7B4E22",
"w  c #785333",
"e  c #8E3927",
"r  c #E61C19",
"t  c #EB1A19",
"y  c #F41918",
"u  c #C72506",
"i  c #C82806",
"p  c #C52108",
"a  c #CC392C",
"s  c #E33734",
"d  c #ED373D",
"f  c #FA393D",
"g  c #864909",
"h  c #824A15",
"j  c #884D16",
"k  c #984012",
"l  c #8B5214",
"z  c #945415",
"x  c #995713",
"c  c #915816",
"v  c #9B5C16",
"b  c #A54B10",
"n  c #A34A1B",
"m  c #A35D16",
"M  c #BE5511",
"N  c #95620F",
"B  c #9E6617",
"V  c #A66017",
"C  c #AD6619",
"Z  c #B36615",
"A  c #BF6517",
"S  c #B36B14",
"D  c #B96B17",
"F  c #B36C19",
"G  c #BD6E19",
"H  c #B47219",
"J  c #BB7219",
"K  c #8E5E3E",
"L  c #A95437",
"P  c #8C692D",
"I  c #8E6437",
"U  c #8D623B",
"Y  c #9C6631",
"T  c #91653D",
"R  c #946B3F",
"E  c #A86E2D",
"W  c #BB7829",
"Q  c #D2410C",
"!  c #CF4D10",
"~  c #E3431B",
"^  c #C66F14",
"/  c #C36C18",
"(  c #DF6F1B",
")  c #C47215",
"_  c #CB7514",
"`  c #C37319",
"'  c #C97619",
"]  c #C57B1A",
"[  c #CB791A",
"{  c #D07511",
"}  c #D87E17",
"|  c #D4701C",
" . c #D27C1A",
".. c #FC3B45",
"X. c #8C6847",
"o. c #946B42",
"O. c #9A6F44",
"+. c #967045",
"@. c #9B7146",
"#. c #96724B",
"$. c #9A7349",
"%. c #9B7A4E",
"&. c #947752",
"*. c #9E7651",
"=. c #A06545",
"-. c #AF7A42",
";. c #A2764C",
":. c #AE764C",
">. c #A4794E",
",. c #B67E43",
"<. c #A57C53",
"1. c #AB7E54",
"2. c #B07E5B",
"3. c #CA4C45",
"4. c #DE5555",
"5. c #E95555",
"6. c #FB5A59",
"7. c #CD821B",
"8. c #D5821C",
"9. c #DC811B",
"0. c #E3841B",
"q. c #D28B38",
"w. c #9A8051",
"e. c #A38357",
"r. c #AC8155",
"t. c #A6825F",
"y. c #AC855A",
"u. c #B78952",
"i. c #B1875C",
"p. c #B48A5B",
"a. c #BA8D5C",
"s. c #B79152",
"d. c #B58E62",
"f. c #B68B6A",
"g. c #BD9268",
"h. c None",
/* pixels */
"h.h.h.h.h.h.h.h.h.h.h.h.h.h.h.h.h.h.h.h.h.h.h.h.h.h.h.h.h.h.h.h.",
"h.h.h.h.h.h.h.h.h.h.h.h.h.h.h.h.h.h.h.h.h.h.h.h.h.h.h.h.h.h.h.h.",
"h.h.h.h.h.h.h.h.h.h.h.h.h.h.h.h.h.h.h.h.h.h.h.h.h.h.h.h.h.h.h.h.",
"h.h.h.h.h.h.h.h.h.h.h.h.h.h.h.h.h.h.h.h.h.h.h.h.h.h.h.h.h.h.h.h.",
"h.h.h.h.h.I X.h.h.h.h.h.h.h.h.h.h.h.h.h.h.h.h.h.h.h.h.h.h.h.h.h.",
"h.h.h.h.K I U o.h.h.h.h.h.h.h.h.h.h.h.h.h.h.h.h.h.h.h.h.h.h.h.h.",
"h.h.h.h.I U U T o.$.h.h.h.h.h.h.h.h.h.h.h.h.h.h.h.h.h.h.h.h.h.h.",
"h.h.X.U T T T o.o.$.w.h.h.h.h.h.h.h.h.h.h.h.h.h.h.h.h.h.h.h.h.h.",
"h.h.I U T o.O.@.@.$.%.<.:.h.h.h.h.h.h.h.h.h.h.h.h.h.h.h.h.h.h.h.",
"h.h.P U U T @.$.;.>.>.e.y.y.p.h.h.h.h.h.h.h.h.h.h.h.h.h.h.h.h.h.",
"h.h.h.K I o.+.$.;.>.<.r.y.i.p.f.h.h.h.h.h.h.h.h.h.h.h.h.h.h.h.h.",
"h.h.h.h.U o.o.#.%.>.<.r.y.d.a.f.g.s.0 h.h.h.| n h.h.X h.h.h.h.h.",
"h.h.h.h.h.h.L =.&.*.<.t.t.f.a.u.2.1.w > h.( ~ a e O   O h.h.h.h.",
"h.h.h.h.h.h.h.h.h.h.,.,.h.h.q.W E Y q @ 6 Q t d 3.* h.h.O O h.h.",
"h.h.h.h.h.h.h.h.h.G } G h.h.9.^ V z 8 @ < i t ..4.4 h.h.h.h.h.h.",
"h.h.h.h.h.h.M S _ _ } { g 8 )  .Z x 6 $ , u r ..5.h.h.h.h.h.h.h.",
"h.h.h.h.h.A / H ` ' [ 9.m 5 m [ S v l ; # p y f 6.h.h.h.h.h.h.h.",
"h.h.h.h.7.] ' J / ' C F m - 5 G z z z - + h.t s 3.h.h.h.h.h.h.h.",
"h.h.h.0.[ [ ' ` ` ` z h j - 2 ] 9 j m 7 & h.h.h.h.h.h.h.h.h.h.h.",
"h.h.h.8.8.9.' _ ' D l l F c b h.7 3 N h.h.h.h.h.h.h.h.h.h.h.h.h.",
"h.h.z ` 0.9.[ ] ` m j v 8.H h.h.h.h.h.h.h.h.h.h.h.h.h.h.h.h.h.h.",
"h.h.2 v 9.9. .] ` m 9 v ] h.h.h.h.h.h.h.h.h.h.h.h.h.h.h.h.h.h.h.",
"h.h.O 5 / 9.` ] ' B 7 h.h.h.h.h.h.h.h.h.h.h.h.h.h.h.h.h.h.h.h.h.",
"h.h.. @ l F H / ! k > h.h.h.h.h.h.h.h.h.h.h.h.h.h.h.h.h.h.h.h.h.",
"h.h.h.o % l h.h.h.h.h.h.h.h.h.h.h.h.h.h.h.h.h.h.h.h.h.h.h.h.h.h.",
"h.h.h.h.h.h.h.h.h.h.h.h.h.h.h.h.h.h.h.h.h.h.h.h.h.h.h.h.h.h.h.h.",
"h.h.h.h.h.h.h.h.h.h.h.h.h.h.h.h.h.h.h.h.h.h.h.h.h.h.h.h.h.h.h.h.",
"h.h.h.h.h.h.h.h.h.h.h.h.h.h.h.h.h.h.h.h.h.h.h.h.h.h.h.h.h.h.h.h.",
"h.h.h.h.h.h.h.h.h.h.h.h.h.h.h.h.h.h.h.h.h.h.h.h.h.h.h.h.h.h.h.h.",
"h.h.h.h.h.h.h.h.h.h.h.h.h.h.h.h.h.h.h.h.h.h.h.h.h.h.h.h.h.h.h.h.",
"h.h.h.h.h.h.h.h.h.h.h.h.h.h.h.h.h.h.h.h.h.h.h.h.h.h.h.h.h.h.h.h.",
"h.h.h.h.h.h.h.h.h.h.h.h.h.h.h.h.h.h.h.h.h.h.h.h.h.h.h.h.h.h.h.h."
};
