/* XPM */
static char *result[] = {
/* columns rows colors chars-per-pixel */
"32 32 151 2 ",
"   c #030605",
".  c #0E0606",
"X  c #020A06",
"o  c #050C0C",
"O  c #0C0A0A",
"+  c #0A0807",
"@  c #130607",
"#  c #140708",
"$  c #150A0B",
"%  c #1C0A0B",
"&  c #021009",
"*  c #050C11",
"=  c #080D11",
"-  c #110F11",
";  c #03141F",
":  c #1C1919",
">  c #171314",
",  c #250B0D",
"<  c #2B0D0F",
"1  c #290E10",
"2  c #320F12",
"3  c #2C1315",
"4  c #2A1715",
"5  c #321214",
"6  c #3B1215",
"7  c #391719",
"8  c #35181A",
"9  c #3E1B1E",
"0  c #08291A",
"q  c #2F231E",
"w  c #35241E",
"e  c #081924",
"r  c #101F2B",
"t  c #142736",
"y  c #142939",
"u  c #272424",
"i  c #2A2626",
"p  c #2D292E",
"a  c #2B262A",
"s  c #332621",
"d  c #332E32",
"f  c #273139",
"g  c #2A3239",
"h  c #283036",
"j  c #3A383C",
"k  c #431519",
"l  c #45171B",
"z  c #52191E",
"x  c #441D20",
"c  c #5A1B20",
"v  c #641D22",
"b  c #492623",
"n  c #582529",
"m  c #4D3329",
"M  c #53372B",
"N  c #543226",
"B  c #5A3E34",
"V  c #69252A",
"C  c #653C2E",
"Z  c #044B2B",
"A  c #1D4D37",
"S  c #1C4D38",
"D  c #724736",
"F  c #7D4B39",
"G  c #784836",
"H  c #092C43",
"J  c #132F44",
"K  c #143043",
"L  c #1A3144",
"P  c #183C55",
"I  c #223747",
"U  c #3C3B44",
"Y  c #373E46",
"T  c #413C44",
"R  c #394149",
"E  c #294154",
"W  c #3D4953",
"Q  c #0E4060",
"!  c #014777",
"~  c #125079",
"^  c #414449",
"/  c #4C444B",
"(  c #4E4C55",
")  c #57555C",
"_  c #61524F",
"`  c #60555E",
"'  c #565C65",
"]  c #585A65",
"[  c #615861",
"{  c #695D67",
"}  c #56616C",
"|  c #5E6877",
" . c #676E79",
".. c #796A77",
"X. c #6D7077",
"o. c #70737A",
"O. c #81513D",
"+. c #CC3945",
"@. c #DC3E4B",
"#. c #D63C48",
"$. c #E33F4D",
"%. c #895641",
"&. c #8F5944",
"*. c #955A44",
"=. c #AB6B51",
"-. c #BC7C63",
";. c #DA565F",
":. c #D64B55",
">. c #E8414E",
",. c #ED4250",
"<. c #F44452",
"1. c #FC4655",
"2. c #FF4957",
"3. c #DE5861",
"4. c #EB5D66",
"5. c #E75B64",
"6. c #F15F69",
"7. c #F5616B",
"8. c #FC646E",
"9. c #00BA66",
"0. c #777A82",
"q. c #417DAC",
"w. c #7692A8",
"e. c #3AC888",
"r. c #43CB8E",
"t. c #1C86CB",
"y. c #1D8CD4",
"u. c #3A8ECB",
"i. c #0193FA",
"p. c #15A0FC",
"a. c #23A8FE",
"s. c #4D93CB",
"d. c #509AD4",
"f. c #529DD8",
"g. c #48B1FE",
"h. c #60B8FE",
"j. c #838A93",
"k. c #959DA7",
"l. c #A4ACB7",
"z. c #A9B2BD",
"x. c #CAAFA9",
"c. c #ABB5C0",
"v. c #AED7F7",
"b. c #AED8F8",
"n. c #B1DBFC",
"m. c #CFDAE8",
"M. c #CEE5FB",
"N. c #D2E6FA",
"B. c #DFEBFA",
"V. c #D9E8F8",
"C. c None",
/* pixels */
"C.C.C.C.C.C.C.C.C.C.C.C.C.C.C.# # C.C.C.C.-         . C.C.C.C.C.",
"C.C.C.C.C.C.C.C.C.C.C.C.C.C.% +.+.% C.C.C.O [ ......T   C.C.C.C.",
"C.C.C.C.C.C.C.C.C.C.C.C.C.% #.2.2.:.$ C.C.O u p p p : . C.C.C.C.",
"C.C.C.C.C.C.C.C.C.C.C.C.% @.1.v V 8.;.$ C.C.  d T a   C.C.C.C.C.",
"C.C.C.C.C.C.C.C.C.C.C.% @.2.v U U n 8.;.% C.O / [ / C.C.C.C.C.C.",
"C.C.C.C.C.C.C.C.C.C., $.1.z T b.b./ n 8.5.%   / [ { C.C.C.C.C.C.",
"C.C.C.C.C.C.C.C.C., $.<.z / b.n.M.V.( b 7.5.% d ] / C.C.C.C.C.C.",
"C.C.C.C.C.C.C.C.1 $.1.c ^ b.n.M.B.B.V.) x 7.4.1 g m . C.C.C.C.C.",
"C.C.C.C.C.C.C.2 ,.<.l ( n.n.M.B.B.B.B.B.) b 7.4.1 > O C.C.C.C.C.",
"C.C.C.C.C.$ 2 ,.<.k ' n.n.M.B.B.B.B.B.B.V.] l 7.6.1 O C.C.C.C.C.",
"C.C.C.C.% 2 ,.<.k ] b.n.M.B.B.B.B.B.B.B.B.B.X.7 6.6.3 . C.C.C.C.",
"C.C.C.% 6 ,.<.6 ] n.n.N.B.B.B.B.B.B.B.B.B.B.V.o.8 6.7.8 # C.C.C.",
"C.C.% k <.,.1 | b.n.N.B.B.B.B.B.B.B.B.B.B.B.B.B.o.4 6.7.8 . C.C.",
"C.C.6 <.,.5 0.n.n.N.B.B.B.B.B.B.B.B.B.B.B.B.B.B.B.0.4 4.7.8 C.C.",
"C.C.v @.< Y n.n.N.B.B.B.B.B.B.B.B.B.B.B.B.B.B.B.B.B.j , 3.V C.C.",
"C.C., @   W n.( O O _ x.4 O - z.z.* * = = = = * } B.R   . # C.C.",
"C.C.C.C.C.W b.i *.=.-.-.-.-.M j.j.! i.p.a.a.a.y.f V.^ C.C.C.C.C.",
"C.C.C.C.C.W n.i 4 w s s w w % j.j.e H H K L K y g B.^ C.C.C.C.C.",
"C.C.C.C.C.W n.i D D &.O.&.O.b w.w.P t.u.r q.s.q.g B.^ C.C.C.C.C.",
"C.C.C.C.C.W b.u O.O.=.=.=.=.M j.j.~ a.g.t d.h.d.g B.^ C.C.C.C.C.",
"C.C.C.C.C.W n.u F *.=.=.=.=.M j.j.~ a.g.t d.h.d.g B.^ C.C.C.C.C.",
"C.C.C.C.C.W n.i F O.=.O.m *.M j.w.P t.u.r q.s.q.g B.R C.C.C.C.C.",
"C.C.C.C.C.W b.q O.=.=.> X.q M j.j.= H J o y L y g B.^ C.C.C.C.C.",
"C.C.C.C.C.W n.4 O.O.=.w : M M j.j.~ a.g.t f.h.d.g B.^ C.C.C.C.C.",
"C.C.C.C.C.W n.i G O.=.=.*.=.M j.j.~ a.g.t f.h.d.g B.^ C.C.C.C.C.",
"C.C.C.C.C.W b.i O.*.=.=.=.=.M j.j.~ a.g.t f.h.d.g B.^ C.C.C.C.C.",
"C.C.C.C.C.W n.i G *.=.=.=.=.C j.k.e P P = I E I R B.^ C.C.C.C.C.",
"C.C.C.C.C.W b.i O.*.=.=.=.=.N j.V.c.l.l.l.l.l.l.m.B.^ C.C.C.C.C.",
"C.C.C.C.C.g w.: N C D D D D w ' k.k.k.k.k.k.k.k.k.k.p C.C.C.C.C.",
"C.C.C.C.& Z Z S A A A A A A A S S S S S S S S S S S S O C.C.C.C.",
"C.C.C.C.0 9.9.e.r.r.r.r.r.r.r.r.r.r.r.r.r.r.r.r.r.r.r.0 C.C.C.C.",
"C.C.C.C.& X X X X X   X         X   X X   X     X X X X C.C.C.C."
};
