/* XPM */
static char *result[] = {
/* columns rows colors chars-per-pixel */
"32 32 174 2 ",
"   c #020101",
".  c #0B0502",
"X  c #0B0901",
"o  c #05090A",
"O  c #0D0B09",
"+  c #040708",
"@  c #130602",
"#  c #130B04",
"$  c #1A0903",
"%  c #120D0A",
"&  c #180702",
"*  c #1B1502",
"=  c #1A130C",
"-  c #191409",
";  c #030D12",
":  c #04151C",
">  c #1D1A15",
",  c #1B1712",
"<  c #240C04",
"1  c #221405",
"2  c #2A1304",
"3  c #251B03",
"4  c #24150F",
"5  c #28120A",
"6  c #2B1D08",
"7  c #34150A",
"8  c #381708",
"9  c #221B14",
"0  c #231916",
"q  c #381E17",
"w  c #2F2800",
"e  c #362E00",
"r  c #3B2507",
"t  c #3D3400",
"y  c #25201A",
"u  c #2C261B",
"i  c #32291B",
"p  c #0D1C24",
"a  c #0B232F",
"s  c #122127",
"d  c #012C3F",
"f  c #092534",
"g  c #112B35",
"h  c #292720",
"j  c #342D24",
"k  c #393127",
"l  c #4B1C0C",
"z  c #421808",
"x  c #531C0A",
"c  c #5A1E0C",
"v  c #641F0A",
"b  c #492903",
"n  c #572507",
"m  c #433A00",
"M  c #593606",
"N  c #592715",
"B  c #5D311F",
"V  c #66220D",
"C  c #6D230D",
"Z  c #623603",
"A  c #773C00",
"S  c #772810",
"D  c #6F2913",
"F  c #423A2E",
"G  c #423727",
"H  c #463D31",
"J  c #6D4103",
"K  c #714402",
"L  c #7D4B03",
"P  c #7B6A00",
"I  c #4A4234",
"U  c #554B3C",
"Y  c #5B4E3D",
"T  c #534836",
"R  c #60513C",
"E  c #013B55",
"W  c #023C59",
"Q  c #144356",
"!  c #12516B",
"~  c #024771",
"^  c #025275",
"/  c #014767",
"(  c #5E5242",
")  c #645643",
"_  c #6A5D4A",
"`  c #6A5B44",
"'  c #776953",
"]  c #7A6B56",
"[  c #7E6F58",
"{  c #8B2C0E",
"}  c #982F0F",
"|  c #862E12",
" . c #8C3114",
".. c #953314",
"X. c #A33311",
"o. c #A43816",
"O. c #AC3B17",
"+. c #AC3511",
"@. c #B23A15",
"#. c #B83F19",
"$. c #C13C13",
"%. c #804902",
"&. c #8C5401",
"*. c #945801",
"=. c #BF4119",
"-. c #A66301",
";. c #C5431A",
":. c #CC461C",
">. c #CD4115",
",. c #DB4B1D",
"<. c #D5461A",
"1. c #E34D1E",
"2. c #EA4E1D",
"3. c #F04F1D",
"4. c #ED501E",
"5. c #F4521E",
"6. c #C27401",
"7. c #D47E01",
"8. c #E17300",
"9. c #ED5120",
"0. c #F35320",
"q. c #FF5722",
"w. c #83735B",
"e. c #807057",
"r. c #A38C00",
"t. c #AB9400",
"y. c #B69D00",
"u. c #BFA500",
"i. c #EB8C01",
"p. c #E18601",
"a. c #FA8A01",
"s. c #F68701",
"d. c #F49101",
"f. c #FC9601",
"g. c #FF9801",
"h. c #CDB100",
"j. c #D6B900",
"k. c #DCBE00",
"l. c #E4C400",
"z. c #EBCA00",
"x. c #FFDC00",
"c. c #F3D200",
"v. c #9E8B6E",
"b. c #928066",
"n. c #A28E71",
"m. c #AF9A7A",
"M. c #B09B7B",
"N. c #015981",
"B. c #026FA0",
"V. c #027CB4",
"C. c #0175A9",
"Z. c #0286C8",
"A. c #0297DD",
"S. c #029EE4",
"D. c #02A2EA",
"F. c #02A9F4",
"G. c #02A7F1",
"H. c #BCA583",
"J. c #C2AA87",
"K. c #CDB48F",
"L. c #D5BC95",
"P. c #D9BF97",
"I. c #DDC29B",
"U. c #E4C89F",
"Y. c #E3C79E",
"T. c #EACEA3",
"R. c #E7CBA1",
"E. c #EDD0A5",
"W. c #F3D5AA",
"Q. c #FADCAF",
"!. c #F0D3A7",
"~. c #FEDFB1",
"^. c #FFE0B2",
"/. c None",
/* pixels */
"/././././././././././././././.    /././././././././././././././.",
"/././././././././././././././.* w X /./././././././././././././.",
"/././././././././.    /././.X j.l.* /././.    /././././././././.",
"/././././././././.  t t     u.x.x.h.X   e m X /././././././././.",
"/./././././././././.3 x.c.k.x.x.x.x.k.z.x.t   /././././././././.",
"/./././././././.      z.x.x.x.x.x.x.x.x.x.X   . /./././././././.",
"/././././././.. 7 ,.r r.z.t.P t e P r.l.u.1 <.z @ /././././././.",
"/./././././.@ n q.q.C * X r K # X J b # * l q.5.v @ /./././././.",
"/././././.. 8 q.0.V % J i.f.6.# = -.f.f.%.$ l 0.2.l & /././././.",
"/././././.  ,.0.8 b i.g.f.f.r w.n.6 d.f.g.s.Z < 2.$.. /././././.",
"/././././.x q.z M g.g.g.f.L i Q.~.G M f.g.g.f.A 2 1.v @ /./././.",
"/./././.@ O.| 6 d.g.g.g.*.- I.^.~.E.4 L g.g.f.a.n V +.@ /./././.",
"/./././.  ,.. p.g.g.d.Z 9 I.^.^.~.^.U.u M i.g.f.8.@ @.  /./././.",
"/./././.  < 6 f.i.&.* Y U.~.^.^.^.^.~.W.` # L p.s.b & # /./././.",
"/./././.  4 = r . T J.R.] b.^.^.^.~.v.' I.K.R # 2 2 # .   /././.",
"/././.O w.T I J.W.^.U O ) k M.^.^.K.j _ O k ^.Q.H.U k v.O /././.",
"/././.X H w.I Q.^.^.W.I.^.^.^.^.^.^.^.^.I.E.^.^.T.( _ ( O /././.",
"/./././.      U.^.^.^.^.^.H.W.^.^.Q.M.^.^.^.^.^.L.+     /./././.",
"/./.& & O.2.B U ^.^.^.^.^.( 9 ' [ i I ^.^.^.^.W.) l 1.o.& . /./.",
"/./.$ 1.q.q.0.9 [ ^.^.^.^.^.m._ _ n.Q.^.^.^.~.w.# 1.q.q.<.< /./.",
"/.$ o.q.q.q.q.,.9 Y E.^.^.^.^.^.^.^.^.^.^.!.) % :.q.q.q.5.X.. /.",
"/.@ ;.q.q.q.q.q.9.B % ] L.^.^.^.^.^.^.I.[ = l 1.q.q.q.q.0.$.  /.",
"/.& | q.q.q.q.q.q.q.:.B O , > y y > , X N =.q.q.q.q.q.q.2.{ . /.",
"/./.. ..q.q.q.q.q.q.q.q.q.;.  F F X o.0.q.q.q.q.q.q.q.0.{ . /./.",
"/././.  z q.q.q.q.q.q.q.q.;.  ' ' O o.q.q.q.q.q.q.q.0.x   /././.",
"/./.. S 0.q.q.q.q.q.q.=.7 % j ) ) k = 4 O.q.q.q.q.q.q.9.S . /./.",
"/.O c q.q.q.q.1.@...7 % ] Y.^.^.~.~.T.w.= 5  .o.,.q.q.q.3.v . /.",
"/.& #.q.q.4.q + a ;   a s O I I.T.Y O s g   o a o 0 ,.q.5.@.  /.",
"/.@ ;.q.q.4 W D.^ d D.F.F.D.! > h Q S.F.F.F.E W A.E % 9.5.$.. /.",
"/.$ ..q.o.p G.Z.; A.F.F.F.F.F.a : G.F.F.F.F.D.: C.Z.d | 5.} . /.",
"/./.@ @.N ^ S.^ d S.S.S.S.S.S.V.B.S.S.S.S.S.S.W / Z.~ q X.& /./.",
"/././.@       +                                         . /././."
};
