/* XPM */
static char *result[] = {
/* columns rows colors chars-per-pixel */
"32 32 229 2 ",
"   c black",
".  c #010000",
"X  c #000100",
"o  c #010101",
"O  c #030000",
"+  c #010201",
"@  c #020201",
"#  c #020301",
"$  c #040100",
"%  c #050101",
"&  c #070101",
"*  c #030402",
"=  c #010702",
"-  c #050702",
";  c #060703",
":  c #080101",
">  c #090101",
",  c #0B0101",
"<  c #0A0202",
"1  c #0B0202",
"2  c #0C0101",
"3  c #0E0101",
"4  c #0F0101",
"5  c #0D0202",
"6  c #0E0202",
"7  c #0F0202",
"8  c #0F0302",
"9  c #0F0303",
"0  c #090502",
"q  c #080602",
"w  c #0F0403",
"e  c #010803",
"r  c #010903",
"t  c #060803",
"y  c #020A04",
"u  c #040904",
"i  c #020D05",
"p  c #070D05",
"a  c #060E05",
"s  c #060F05",
"d  c #080A04",
"f  c #090A04",
"g  c #090C04",
"h  c #100202",
"j  c #120302",
"k  c #130302",
"l  c #140303",
"z  c #160303",
"x  c #110403",
"c  c #130403",
"v  c #160403",
"b  c #170403",
"n  c #100504",
"m  c #120504",
"M  c #150605",
"N  c #160605",
"B  c #180303",
"V  c #1A0303",
"C  c #1D0303",
"Z  c #190504",
"A  c #1A0604",
"S  c #1C0504",
"D  c #110905",
"F  c #081006",
"G  c #091006",
"H  c #0A1207",
"J  c #0E1006",
"K  c #0F1207",
"L  c #0A1408",
"P  c #0E1408",
"I  c #0E1609",
"U  c #0B1A0A",
"Y  c #0E1F0C",
"T  c #111A0B",
"R  c #131A0A",
"E  c #141E0C",
"W  c #210303",
"Q  c #200404",
"!  c #230404",
"~  c #240404",
"^  c #2B0505",
"/  c #2D0705",
"(  c #2F0706",
")  c #250906",
"_  c #2F0B07",
"`  c #320606",
"'  c #350606",
"]  c #340706",
"[  c #3C0606",
"{  c #3E0606",
"}  c #3F0707",
"|  c #320B08",
" . c #300E0B",
".. c #3A120F",
"X. c #0F220D",
"o. c #13200D",
"O. c #13210D",
"+. c #1A220B",
"@. c #18200C",
"#. c #1B240E",
"$. c #19260E",
"%. c #1C290E",
"&. c #1D2810",
"*. c #173313",
"=. c #1A3112",
"-. c #1C3011",
";. c #1E3112",
":. c #22290D",
">. c #202C11",
",. c #283213",
"<. c #410606",
"1. c #440707",
"2. c #460707",
"3. c #410B09",
"4. c #440A08",
"5. c #4B0A09",
"6. c #500A0A",
"7. c #5A0B0B",
"8. c #5D0909",
"9. c #5A120D",
"0. c #4E1813",
"q. c #561A16",
"w. c #5F1812",
"e. c #640E0C",
"r. c #690D0D",
"t. c #6E0C0C",
"y. c #770D0D",
"u. c #760F0F",
"i. c #780C0C",
"p. c #790C0C",
"a. c #7A0C0C",
"s. c #64140E",
"d. c #6A130F",
"f. c #6B150F",
"g. c #70100E",
"h. c #74100E",
"j. c #7E120F",
"k. c #651810",
"l. c #6C1911",
"z. c #761711",
"x. c #791C13",
"c. c #75241E",
"v. c #084414",
"b. c #1E4319",
"n. c #234A1D",
"m. c #31411A",
"M. c #3A4B1E",
"N. c #3F4F1F",
"B. c #23521F",
"V. c #24501F",
"C. c #295E24",
"Z. c #0E6F26",
"A. c #2D6026",
"S. c #2C6226",
"D. c #2D6227",
"F. c #2D6827",
"G. c #367D2F",
"H. c #397C33",
"J. c #485A24",
"K. c #506428",
"L. c #667E31",
"P. c #831010",
"I. c #841010",
"U. c #891111",
"Y. c #8C1111",
"T. c #8A1411",
"R. c #831F15",
"E. c #8B1812",
"W. c #911212",
"Q. c #981412",
"!. c #9A1412",
"~. c #9B1613",
"^. c #9D1613",
"/. c #921D15",
"(. c #A21714",
"). c #A31714",
"_. c #AB1B16",
"`. c #B01E17",
"'. c #972418",
"]. c #9F2619",
"[. c #B62119",
"{. c #B42419",
"}. c #B7241A",
"|. c #B8251A",
" X c #BE261B",
".X c #BF261B",
"XX c #B02A1C",
"oX c #BF2D1E",
"OX c #8D2B24",
"+X c #982E26",
"@X c #C83020",
"#X c #CA3020",
"$X c #D23221",
"%X c #D63322",
"&X c #D73423",
"*X c #D83524",
"=X c #E03D2F",
"-X c #CD4036",
";X c #E44133",
":X c #E64336",
">X c #E74437",
",X c #E84537",
"<X c #E4453A",
"1X c #E94639",
"2X c #E8493D",
"3X c #EC493D",
"4X c #ED4A3E",
"5X c #388030",
"6X c #3A8532",
"7X c #3C8536",
"8X c #409337",
"9X c #45973E",
"0X c #449A3B",
"qX c #759138",
"wX c #78943A",
"eX c #7A963B",
"rX c #49A240",
"tX c #4BA544",
"yX c #65A141",
"uX c #81A03E",
"iX c #88A83D",
"pX c #86A541",
"aX c #86A641",
"sX c #90B346",
"dX c #92B447",
"fX c #98BC4A",
"gX c #98BD4A",
"hX c #A0C64E",
"jX c None",
/* pixels */
"jXjXjXjXjXjXjXjXjXjXjX< 4 3 > & l jXjXjXjXjXjXjXjXjXjXjXjXjXjXjX",
"jXjXjXjXjXjXjXjXjX2 ^ ] O h 7.U.u.} , jXjXjXjXjXjXjXjXjXjXjXjXjX",
"jXjXjXjXjXjXjXjX6 t.Q.g.{ 8.! V P.W.I.C 1 jXjXjXjXjXjXjXjXjXjXjX",
"jXjXjXjXjXjXjXjXO y.!.e.<.a.a.1.~ W.W.Y.z jXjXjXjXjXjXjXjXjXjXjX",
"jXjXjXjXjXjXjXjX  ` !.j.Q p.a.a.W 6.r.3.j % jXjXjXjXjXjXjXjXjXjX",
"jXjXjXjXjXjXjXjX7 / 4.~.5.[ i.a.2.. ) k.].w.jXjXjXjXjXjXjXjXjXjX",
"jXjXjXjXjXjXjXjXv (.d.5 ( $ B ' A XX%X&X:Xc.jXjXjXjXjXjXjXjXjXjX",
"jXjXjXjXjXjXjXjXv ).[.}./.f.Z _ @X%X&X>X4X<XjXjXjXjXjXjXjXjXjXjX",
"jXjXjXjXjXjXjXjXb ).[..X.X{.c oX%X%X;X4X4XOXjXjXjXjXjXjXjXjXjXjX",
"jXjXjXjXjXjXjXjX& ^.[..X.Xs.x.%X%X*X3X4X4X0.jXjXjXjXjXjXjXjXjXjX",
"jXjXjXjXjXjXjXjXh h.`..X|.x #X%X%X=X4X4X4XM jXjXjXjXjXjXjXjXjXjX",
"jXjXjXjXjXjXjXjXk 4._..X/.| %X%X%X,X4X4X-Xw jXjXjXjXjXjXjXjXjXjX",
"jXjXjXjXjXjXjXjXjX8 T. Xz.l.%X%X%X1X4X2X..jXjXjXjXjXjXjXjXjXjXjX",
"jXjXjXjXjXjXjXjXjXjX5 E.9.R.%X%X%X1X4Xq.m jXjXjXjXjXjXjXjXjXjXjX",
"jXjXjXjXjXjXjXjXjXjXjX: S '.%X%X$X+X .N jXjXjXjXjXjXjXjXjXjXjXjX",
"jXjXjXjXjXjXjXjXjXjXjXjX9 @ q D 0 n jXjXjXjXjXjXjXjXjXjXjXjXjXjX",
"jXjXjXjXjXjXjXjXjXjXjXjXjXi v.Z.e jXjXjXjXjXjXjXjXjXjXjXjXjXjXjX",
"jXjXjXjXjXjXjXjXjXjXjXjXjXjXr = y jXjXjXjXjXjXjXjXjXjXjXjXjXjXjX",
"jXjXjXjXjXjXjXjXjXjXjXjXjXjXjX  jXjXjXjXjXjXjXjXjXjXjXjXjXjXjXjX",
"jXjXjXjXjXjXjXjXjXjXjXjXjXjXjX  jXjXjXjXjXjXjXjXjXjXjXjXjXjXjXjX",
"jXjXjXjXjXjXjXjXjXjX%.$.jXjXjX  jXjXjXjX-.o.;.jXjXjXjXjXjXjXjXjX",
"jXjXjXjXjXjXjXjXjX+ :.L.@.T jX  jXjXI *.S.7XH J jXjXjXjXjXjXjXjX",
"jXjXjXjXjXjXjXjXjXX.=.m.gXM.#   jXF F.rXtXO.K.+ jXjXjXjXjXjXjXjX",
"jXjXjXjXjXjXjXjXjXs G.n.>.sX#.  G 5XrX9XyXwXfX; jXjXjXjXjXjXjXjX",
"jXjXjXjXjXjXjXjXjXjXU 6XD.E N.  C.0XH.P aXhXJ.- jXjXjXjXjXjXjXjX",
"jXjXjXjXjXjXjXjXjXjXjXa B.V.o L 8XA.R pXhXuX* jXjXjXjXjXjXjXjXjX",
"jXjXjXjXjXjXjXjXjXjXjXjXu p   Y b.&.dXhXqXt jXjXjXjXjXjXjXjXjXjX",
"jXjXjXjXjXjXjXjXjXjXjXjXjXjXjXX +.iXeX,.g jXjXjXjXjXjXjXjXjXjXjX",
"jXjXjXjXjXjXjXjXjXjXjXjXjXjXjX  K d f jXjXjXjXjXjXjXjXjXjXjXjXjX",
"jXjXjXjXjXjXjXjXjXjXjXjXjXjXjX  jXjXjXjXjXjXjXjXjXjXjXjXjXjXjXjX",
"jXjXjXjXjXjXjXjXjXjXjXjXjXjXjX  jXjXjXjXjXjXjXjXjXjXjXjXjXjXjXjX",
"jXjXjXjXjXjXjXjXjXjXjXjXjXjXjX  jXjXjXjXjXjXjXjXjXjXjXjXjXjXjXjX"
};
