/* XPM */
static char *result[] = {
/* columns rows colors chars-per-pixel */
"32 32 188 2 ",
"   c #130405",
".  c #1C0303",
"X  c #140C0D",
"o  c #1C0808",
"O  c #0C180A",
"+  c #12170C",
"@  c #151A14",
"#  c #181C10",
"$  c #151313",
"%  c #0B0707",
"&  c #2B0404",
"*  c #220A0B",
"=  c #250605",
"-  c #340405",
";  c #3C0204",
":  c #3B0C0B",
">  c #3A130A",
",  c #301005",
"<  c #231A1B",
"1  c #281517",
"2  c #3A1518",
"3  c #1F2B0B",
"4  c #03320A",
"5  c #11350E",
"6  c #112411",
"7  c #142B16",
"8  c #182110",
"9  c #173C14",
"0  c #222612",
"q  c #263912",
"w  c #27350B",
"e  c #231F22",
"r  c #381F20",
"t  c #282624",
"y  c #362425",
"u  c #3F292B",
"i  c #2B332E",
"p  c #293222",
"a  c #30312B",
"s  c #3A2E31",
"d  c #393439",
"f  c #3B3635",
"g  c #430204",
"h  c #4B0204",
"j  c #4A0708",
"k  c #530204",
"l  c #5C0104",
"z  c #540A08",
"x  c #520E10",
"c  c #481516",
"v  c #531B1F",
"b  c #6B0003",
"n  c #670A08",
"m  c #730103",
"M  c #7C0203",
"N  c #770D0A",
"B  c #79100B",
"V  c #750B10",
"C  c #6C1A17",
"Z  c #66221F",
"A  c #5A2423",
"S  c #43373A",
"D  c #47373B",
"F  c #672523",
"G  c #024911",
"H  c #164717",
"J  c #145719",
"K  c #095B19",
"L  c #2A4212",
"P  c #364917",
"I  c #395617",
"U  c #09691C",
"Y  c #10661E",
"T  c #07741E",
"R  c #175422",
"E  c #224027",
"W  c #364320",
"Q  c #354936",
"!  c #106C20",
"~  c #0B7E20",
"^  c #117A24",
"/  c #4C651C",
"(  c #4F6424",
")  c #5C7921",
"_  c #493C41",
"`  c #4A4948",
"'  c #4C5444",
"]  c #465742",
"[  c #5B535A",
"{  c #61575C",
"}  c #58624F",
"|  c #576151",
" . c #635C62",
".. c #6A5D69",
"X. c #6C646A",
"o. c #71686F",
"O. c #746C72",
"+. c #7A6C79",
"@. c #777377",
"#. c #7C757B",
"$. c #7E797D",
"%. c #840001",
"&. c #8D0305",
"*. c #940102",
"=. c #9B0103",
"-. c #920F09",
";. c #891008",
":. c #A40000",
">. c #AD0001",
",. c #A90F06",
"<. c #B90102",
"1. c #B40103",
"2. c #A41109",
"3. c #BB1208",
"4. c #A4221E",
"5. c #8C2D2B",
"6. c #952E2B",
"7. c #B62926",
"8. c #C50102",
"9. c #CD0002",
"0. c #D10001",
"q. c #C71308",
"w. c #D6150A",
"e. c #DA1407",
"r. c #E21407",
"t. c #EA1406",
"y. c #EA160A",
"u. c #EC190C",
"i. c #E5170B",
"p. c #F21405",
"a. c #DF251E",
"s. c #F3241E",
"d. c #D62F2B",
"f. c #F92B23",
"g. c #E2312C",
"h. c #ED332F",
"j. c #FD322C",
"k. c #FE3631",
"l. c #D5413F",
"z. c #159A2E",
"x. c #0A9627",
"c. c #0FA12C",
"v. c #10A32D",
"b. c #469E2D",
"n. c #6B8D24",
"m. c #6F9928",
"M. c #769829",
"N. c #7FA926",
"B. c #82AD2C",
"V. c #87B42E",
"C. c #8BB82F",
"Z. c #837281",
"A. c #847D83",
"S. c #887E87",
"D. c #8A7989",
"F. c #917D8F",
"G. c #927E90",
"H. c #8D858D",
"J. c #8F898F",
"K. c #938192",
"L. c #988697",
"P. c #948D93",
"I. c #998F97",
"U. c #998B98",
"Y. c #9C949C",
"T. c #9D989C",
"R. c #939292",
"E. c #A0929F",
"W. c #A497A3",
"Q. c #A59BA5",
"!. c #A99AA7",
"~. c #AA9DA9",
"^. c #AEA2AE",
"/. c #AEA9AE",
"(. c #B0A3AF",
"). c #AFA6B0",
"_. c #B1A6B1",
"`. c #B6ACB6",
"'. c #B8AFB7",
"]. c #B7AEB8",
"[. c #B8AEB8",
"{. c #BBB2BB",
"}. c #B8B1B7",
"|. c #BFB7C0",
" X c #C4BCC4",
".X c #C3BBC4",
"XX c #C8C0C8",
"oX c None",
/* pixels */
"].'.[.[.`.`.`.[.`._.J.[ D t $ X D A._.'.].].[.[.].`.].[.[.].[.`.",
"].].`.`.[.[.[.`.$.y r c X * j m V v y X.~.].[.[.{.[.].[.].].[.[.",
"].[.`.`.'.{.{.E.1 b *.b h l h ; %.*.%.c [ ).].].].].]._._.`.[.[.",
"_._.`.`.`.].{.P.  m :.b h %.%.k g =.=.%.2 @.`.`._._._._._._._._.",
"(._._.`.`.].|.P.% - *.%.- %.%.m - l m x o < W.).(.(.(.^.(.(.(.(.",
"^._._.].'.].{.P.  - z *.h h %.%.g   : n ;.F H.).(.(.^.(.(.(.(.~.",
"^.^._._.`.].{.P.= =.M j g . & ; j ,.q.w.a.5.H.).(.(._.(.(.(.~.~.",
"~.~.^._._.].].H.= >.8.<.=.m o z q.t.u.f.k.d.^./.`.`._._.(.(.~.~.",
"~.Q.^.^._.`.}.H.= >.8.0.9.1.& 3.t.y.f.k.h.6.S._.|.`.]._.(.^.~.~.",
"~.~.~.^._.`.`.P.o :.8.0.8.N B e.t.y.k.k.g.F $._.`.`.]._._.(.^.^.",
"^.~.~.^._.].].P.* M <.0.>.= q.t.y.f.k.k.d.r I.].].|.`.|.`.`.`._.",
"^.^.~.^._.`.].Q.D g :.9.&.: e.t.i.f.k.k.7.s _.].`.`._._.`._.`.`.",
"~.~.~.^._._.].].Y.< m 1.M B e.t.u.j.k.g.A @.].].]._._.(.~.^._.`.",
"~.~.^.^._.`._.].`.O.1 M n -.r.t.i.j.k.C _ Q.].`.`.`._.~.~.~._._.",
"^.^._._.`._.].].`._.{ * : 2.r.p.t.4.c S K.].`.].`.`.`.^.^._._.`.",
"^._.].].].].].].'.`.(.#.f = , > > D o.L.`.`.].`.].].].`.`.`.`.`.",
"_.`.].].].].].{.].|.{.{.I.i 4 G i E.}.{.{.[.[.`.'.`.'.].[.[.[.[.",
"`.`.'.].].].{.{.|..X|.|.|.R.t @ O.|. X X|.{.{.'.`.'.[.`.`.[.[.[.",
"`.`.`.'.`.'.{.{.|.XXXX.X.X.XH. ./.XXXX X X|.[.'.`.`.[.[.'.[.`._.",
"`.`.'.`.'.`.'.{.|..X|.|..XXXR. ._. X X{.}.(.(.'.`.[.`.[.'._.^.W.",
"`.`.[.`.].`.].{.{.A.' | R.).P. ./.}.T.@.] Q } R._.].].].'._.!.L.",
"`.[.`.[.].].}.{.T.@ 3 / W ` o. ./.@.p H ! Y 8 p E.`.'.].`._.~.E.",
"`.[.[.`.].{.|.|.T.7 5 I N.I $ ` O.O U v.z.9 / X I.'.'.`.`.'.`.(.",
"].].].`.}.{.|..X/.6 U H P N.q t 7 x.z.c.b.m.V.# I.'.].'.].].[.].",
"[.[.].[.[.{.{..X`.#.E U J q L O K x.^ H m.V.( ` Q.{.].{.].{.{.].",
"[.].[.].].'.`.`.].^.$.Q R 9 6 O ~ J q n.V.) a P._.`.`.`.].`.'.`.",
"!.!.!.!.!.!.!.!.~.!.~.U.[ d d 6 5 L B.C.) a S.Q.~.~.!.~.!.~.~.~.",
"L.L.L.L.L.L.L.L.L.L.L.U.U.L.X.$ w B.M.P s +.L.L.L.L.L.L.L.L.L.L.",
"G.G.G.G.G.G.G.G.G.G.G.G.F.F...e # 0 0 { Z.F.G.G.G.G.G.G.F.G.G.G.",
"K.K.K.K.G.K.G.K.K.K.G.G.G.F...S ..+.+.F.K.K.G.K.K.K.K.K.G.G.G.G.",
"K.K.K.K.K.K.K.K.K.K.K.K.G.G..._ Z.K.G.K.K.K.K.K.K.K.K.K.K.K.K.K.",
"oXoXoXoXoXoXoXoXoXoXoXoXoXoX[ d oXoXoXoXoXoXoXoXoXoXoXoXoXoXoXoX"
};
